<svg xmlns="http://www.w3.org/2000/svg" xmlns:xlink="http://www.w3.org/1999/xlink" width="500" zoomAndPan="magnify" viewBox="0 0 375 374.999991" height="500" preserveAspectRatio="xMidYMid meet" version="1.0"><defs><filter x="0%" y="0%" width="100%" height="100%" id="73e40f43c3"><feColorMatrix values="0 0 0 0 1 0 0 0 0 1 0 0 0 0 1 0 0 0 1 0" color-interpolation-filters="sRGB"/></filter><g/><mask id="75205881bc"><g filter="url(#73e40f43c3)"><rect x="-37.5" width="450" fill="#000000" y="-37.499999" height="449.999989" fill-opacity="0.88"/></g></mask><clipPath id="8a00441617"><path d="M 0.328125 81 L 62 81 L 62 170.351562 L 0.328125 170.351562 Z M 0.328125 81 " clip-rule="nonzero"/></clipPath><clipPath id="add4919fa6"><path d="M 41 0.101562 L 173 0.101562 L 173 163 L 41 163 Z M 41 0.101562 " clip-rule="nonzero"/></clipPath><clipPath id="3e2bece8d6"><path d="M 3 45 L 175.078125 45 L 175.078125 170.351562 L 3 170.351562 Z M 3 45 " clip-rule="nonzero"/></clipPath><clipPath id="68def58465"><rect x="0" width="176" y="0" height="171"/></clipPath><clipPath id="a14340b85a"><path d="M 217 202 L 352.042969 202 L 352.042969 246.089844 L 217 246.089844 Z M 217 202 " clip-rule="nonzero"/></clipPath><clipPath id="ac0c8793fd"><path d="M 213.292969 128.339844 L 300 128.339844 L 300 240 L 213.292969 240 Z M 213.292969 128.339844 " clip-rule="nonzero"/></clipPath></defs><g mask="url(#75205881bc)"><g transform="matrix(1, 0, 0, 1, 38, 76)"><g clip-path="url(#68def58465)"><g clip-path="url(#8a00441617)"><path fill="#16519f" d="M 35.957031 81.585938 L 0.339844 170.246094 L 37.320312 170.246094 L 49.320312 138.023438 L 59.785156 109.890625 L 61.566406 105.203125 Z M 35.957031 81.585938 " fill-opacity="1" fill-rule="evenodd"/></g><g clip-path="url(#add4919fa6)"><path fill="#b4d1d6" d="M 172.339844 162.933594 L 106.980469 0.101562 L 68.636719 0.101562 L 41.378906 68.046875 L 68.179688 87.5 L 87.914062 34.808594 L 115.832031 109.890625 L 121.957031 126.441406 Z M 172.339844 162.933594 " fill-opacity="1" fill-rule="evenodd"/></g><g clip-path="url(#3e2bece8d6)"><path fill="#16519f" d="M 175.277344 170.246094 L 138.261719 170.246094 L 3.277344 45.691406 Z M 175.277344 170.246094 " fill-opacity="1" fill-rule="evenodd"/></g></g></g></g><g clip-path="url(#a14340b85a)"><path fill="#231f20" d="M 347.550781 205.304688 C 345.921875 204.402344 344.164062 203.6875 342.316406 203.203125 C 341.390625 202.964844 340.449219 202.78125 339.492188 202.65625 L 339.402344 202.644531 L 339.355469 202.636719 L 339.308594 202.632812 L 339.128906 202.613281 C 339.011719 202.597656 338.890625 202.585938 338.769531 202.574219 C 338.648438 202.5625 338.527344 202.550781 338.410156 202.539062 L 338.226562 202.523438 C 338.195312 202.523438 338.167969 202.519531 338.136719 202.515625 L 338.046875 202.511719 C 337.925781 202.503906 337.804688 202.496094 337.683594 202.488281 C 337.621094 202.484375 337.5625 202.480469 337.5 202.476562 L 337.316406 202.472656 C 337.195312 202.46875 337.074219 202.460938 336.953125 202.457031 C 336.832031 202.453125 336.707031 202.453125 336.585938 202.449219 C 336.097656 202.441406 335.609375 202.453125 335.121094 202.472656 C 334.996094 202.476562 334.875 202.484375 334.75 202.488281 L 334.566406 202.5 L 334.476562 202.503906 L 334.382812 202.511719 C 334.261719 202.519531 334.140625 202.53125 334.015625 202.539062 C 333.957031 202.542969 333.894531 202.546875 333.832031 202.554688 L 333.648438 202.570312 C 333.523438 202.582031 333.402344 202.59375 333.28125 202.605469 C 333.160156 202.617188 333.035156 202.632812 332.914062 202.648438 L 332.726562 202.667969 L 332.636719 202.679688 L 332.542969 202.691406 C 332.421875 202.710938 332.300781 202.726562 332.175781 202.742188 C 332.113281 202.75 332.054688 202.757812 331.992188 202.769531 L 331.808594 202.796875 C 331.6875 202.816406 331.5625 202.835938 331.441406 202.855469 C 331.316406 202.875 331.195312 202.898438 331.074219 202.917969 L 330.890625 202.953125 C 330.828125 202.960938 330.765625 202.972656 330.707031 202.984375 C 329.730469 203.167969 328.753906 203.398438 327.785156 203.660156 L 327.695312 203.683594 L 327.605469 203.710938 L 327.421875 203.761719 C 327.300781 203.796875 327.179688 203.832031 327.058594 203.867188 C 326.941406 203.902344 326.820312 203.9375 326.699219 203.972656 C 326.578125 204.011719 326.457031 204.046875 326.335938 204.085938 C 326.097656 204.164062 325.855469 204.238281 325.617188 204.320312 C 325.496094 204.359375 325.375 204.398438 325.257812 204.4375 C 325.136719 204.480469 325.019531 204.523438 324.898438 204.5625 C 324.421875 204.730469 323.945312 204.910156 323.46875 205.089844 C 323.351562 205.136719 323.234375 205.183594 323.113281 205.230469 C 322.996094 205.277344 322.878906 205.324219 322.761719 205.371094 C 322.640625 205.421875 322.523438 205.46875 322.40625 205.515625 L 322.230469 205.589844 L 322.050781 205.664062 C 321.109375 206.0625 320.175781 206.488281 319.25 206.9375 C 318.324219 207.386719 317.40625 207.863281 316.496094 208.359375 L 316.152344 208.546875 C 316.039062 208.609375 315.925781 208.671875 315.8125 208.738281 C 315.699219 208.800781 315.585938 208.863281 315.472656 208.929688 C 315.359375 208.992188 315.246094 209.058594 315.132812 209.121094 C 315.019531 209.1875 314.90625 209.253906 314.796875 209.316406 C 314.683594 209.382812 314.570312 209.449219 314.457031 209.515625 C 314.234375 209.648438 314.007812 209.78125 313.785156 209.914062 C 313.671875 209.980469 313.558594 210.046875 313.449219 210.113281 C 313.335938 210.183594 313.226562 210.25 313.113281 210.316406 C 313 210.386719 312.886719 210.453125 312.777344 210.519531 C 312.664062 210.585938 312.554688 210.65625 312.441406 210.722656 C 312.21875 210.863281 311.992188 211 311.769531 211.136719 C 311.546875 211.277344 311.324219 211.414062 311.101562 211.554688 L 310.765625 211.765625 C 310.65625 211.835938 310.542969 211.90625 310.433594 211.976562 C 310.320312 212.046875 310.210938 212.117188 310.101562 212.1875 C 309.988281 212.257812 309.878906 212.328125 309.765625 212.402344 C 309.542969 212.542969 309.320312 212.6875 309.101562 212.828125 C 308.878906 212.972656 308.65625 213.117188 308.433594 213.261719 C 304.886719 215.585938 301.371094 218.058594 297.832031 220.585938 C 294.292969 223.117188 290.726562 225.699219 287.066406 228.230469 C 286.152344 228.859375 285.230469 229.492188 284.304688 230.113281 C 283.375 230.738281 282.441406 231.355469 281.5 231.96875 C 281.265625 232.121094 281.027344 232.273438 280.792969 232.425781 C 280.554688 232.574219 280.316406 232.726562 280.078125 232.878906 C 279.84375 233.027344 279.605469 233.179688 279.367188 233.328125 C 279.125 233.476562 278.886719 233.628906 278.648438 233.777344 C 277.6875 234.371094 276.71875 234.953125 275.742188 235.527344 C 274.761719 236.097656 273.773438 236.660156 272.777344 237.207031 C 271.777344 237.75 270.769531 238.28125 269.746094 238.792969 C 268.726562 239.308594 267.695312 239.800781 266.648438 240.277344 C 266.128906 240.519531 265.601562 240.746094 265.074219 240.976562 C 264.8125 241.089844 264.546875 241.199219 264.28125 241.3125 C 264.148438 241.367188 264.015625 241.421875 263.882812 241.476562 C 263.75 241.53125 263.617188 241.582031 263.480469 241.636719 C 263.367188 241.6875 263.25 241.730469 263.136719 241.777344 C 263.019531 241.824219 262.902344 241.871094 262.785156 241.914062 C 262.667969 241.960938 262.554688 242.003906 262.4375 242.050781 L 262.261719 242.117188 C 262.207031 242.140625 262.148438 242.164062 262.089844 242.183594 C 261.621094 242.359375 261.15625 242.535156 260.6875 242.699219 C 260.570312 242.742188 260.453125 242.785156 260.335938 242.824219 L 259.984375 242.949219 C 259.746094 243.027344 259.511719 243.105469 259.277344 243.1875 C 259.21875 243.207031 259.160156 243.226562 259.101562 243.246094 L 258.921875 243.300781 C 258.804688 243.339844 258.6875 243.378906 258.570312 243.414062 C 258.453125 243.453125 258.332031 243.492188 258.214844 243.527344 L 258.125 243.558594 L 258.039062 243.585938 L 257.859375 243.636719 C 257.625 243.710938 257.386719 243.78125 257.148438 243.851562 C 257.089844 243.871094 257.03125 243.886719 256.972656 243.90625 L 256.792969 243.953125 C 256.675781 243.988281 256.554688 244.023438 256.4375 244.058594 C 256.316406 244.089844 256.199219 244.125 256.082031 244.15625 C 255.960938 244.191406 255.839844 244.222656 255.722656 244.253906 C 255.484375 244.316406 255.246094 244.378906 255.007812 244.441406 C 254.054688 244.6875 253.105469 244.894531 252.15625 245.007812 C 251.683594 245.0625 251.210938 245.089844 250.738281 245.085938 C 250.269531 245.082031 249.804688 245.042969 249.351562 244.964844 C 249.292969 244.953125 249.234375 244.945312 249.179688 244.933594 L 249.09375 244.914062 L 249.054688 244.90625 L 249.011719 244.898438 C 248.90625 244.871094 248.796875 244.84375 248.691406 244.8125 C 248.585938 244.78125 248.480469 244.742188 248.378906 244.703125 C 248.273438 244.664062 248.171875 244.621094 248.074219 244.570312 C 247.976562 244.523438 247.878906 244.476562 247.785156 244.417969 L 247.714844 244.378906 L 247.648438 244.335938 C 247.601562 244.304688 247.558594 244.277344 247.515625 244.246094 C 247.492188 244.230469 247.472656 244.214844 247.449219 244.199219 L 247.386719 244.148438 C 247.367188 244.132812 247.347656 244.117188 247.328125 244.097656 L 247.296875 244.074219 C 247.289062 244.066406 247.277344 244.058594 247.269531 244.050781 C 247.191406 243.980469 247.121094 243.90625 247.054688 243.832031 C 246.921875 243.679688 246.8125 243.519531 246.738281 243.347656 C 246.699219 243.261719 246.671875 243.171875 246.648438 243.085938 C 246.625 242.996094 246.617188 242.902344 246.609375 242.8125 C 246.601562 242.628906 246.625 242.4375 246.675781 242.246094 C 246.730469 242.054688 246.8125 241.863281 246.914062 241.671875 C 247.019531 241.480469 247.140625 241.289062 247.269531 241.101562 C 247.335938 241.007812 247.40625 240.910156 247.476562 240.816406 C 247.511719 240.769531 247.546875 240.722656 247.585938 240.675781 L 247.691406 240.535156 C 247.835938 240.351562 247.988281 240.171875 248.144531 239.992188 C 248.296875 239.8125 248.457031 239.632812 248.617188 239.457031 C 248.941406 239.109375 249.273438 238.765625 249.613281 238.425781 C 249.953125 238.085938 250.300781 237.75 250.648438 237.414062 C 251.339844 236.746094 252.042969 236.082031 252.734375 235.40625 C 253.429688 234.730469 254.109375 234.042969 254.765625 233.320312 C 255.089844 232.960938 255.410156 232.59375 255.71875 232.21875 C 255.792969 232.121094 255.871094 232.027344 255.945312 231.929688 L 256.058594 231.789062 L 256.167969 231.640625 C 256.242188 231.546875 256.316406 231.445312 256.386719 231.347656 C 256.425781 231.296875 256.460938 231.246094 256.496094 231.199219 C 256.53125 231.148438 256.566406 231.101562 256.601562 231.046875 L 256.703125 230.898438 C 256.738281 230.847656 256.773438 230.792969 256.804688 230.742188 C 256.875 230.640625 256.941406 230.539062 257.003906 230.433594 C 257.132812 230.226562 257.261719 230.011719 257.378906 229.796875 C 257.4375 229.6875 257.492188 229.578125 257.550781 229.46875 C 257.578125 229.414062 257.605469 229.355469 257.632812 229.300781 L 257.671875 229.21875 L 257.710938 229.132812 L 257.789062 228.964844 L 257.859375 228.792969 C 257.886719 228.734375 257.90625 228.675781 257.929688 228.617188 L 257.964844 228.53125 C 257.976562 228.5 257.984375 228.472656 257.996094 228.441406 L 258.058594 228.265625 C 258.070312 228.238281 258.078125 228.207031 258.085938 228.175781 L 258.117188 228.089844 L 258.144531 228 C 258.152344 227.96875 258.160156 227.9375 258.171875 227.910156 C 258.1875 227.847656 258.203125 227.789062 258.21875 227.726562 C 258.285156 227.484375 258.335938 227.238281 258.375 226.988281 C 258.410156 226.738281 258.433594 226.484375 258.441406 226.230469 C 258.445312 225.976562 258.433594 225.71875 258.40625 225.460938 C 258.34375 224.949219 258.195312 224.441406 257.960938 223.976562 C 257.847656 223.746094 257.710938 223.523438 257.554688 223.316406 C 257.402344 223.109375 257.230469 222.917969 257.046875 222.738281 C 256.679688 222.382812 256.261719 222.089844 255.828125 221.847656 C 255.390625 221.609375 254.933594 221.421875 254.46875 221.273438 C 254.234375 221.199219 254 221.136719 253.761719 221.082031 C 253.644531 221.054688 253.523438 221.03125 253.40625 221.003906 L 253.226562 220.972656 C 253.167969 220.964844 253.109375 220.957031 253.046875 220.945312 C 252.808594 220.910156 252.570312 220.878906 252.328125 220.859375 C 252.089844 220.839844 251.847656 220.832031 251.609375 220.824219 C 251.371094 220.820312 251.128906 220.824219 250.890625 220.835938 C 250.648438 220.851562 250.410156 220.871094 250.171875 220.898438 C 249.695312 220.957031 249.222656 221.046875 248.757812 221.175781 L 248.585938 221.230469 C 248.527344 221.246094 248.46875 221.265625 248.414062 221.285156 C 248.382812 221.292969 248.355469 221.304688 248.328125 221.3125 L 248.246094 221.339844 L 248.082031 221.398438 L 248 221.429688 L 247.917969 221.457031 L 247.753906 221.519531 C 247.699219 221.539062 247.640625 221.558594 247.589844 221.582031 L 247.425781 221.644531 C 246.992188 221.8125 246.5625 221.996094 246.140625 222.1875 C 245.71875 222.378906 245.304688 222.582031 244.894531 222.789062 C 244.792969 222.84375 244.691406 222.894531 244.585938 222.949219 C 244.488281 223.003906 244.382812 223.054688 244.28125 223.109375 C 244.183594 223.164062 244.082031 223.21875 243.980469 223.273438 C 243.878906 223.328125 243.78125 223.382812 243.679688 223.441406 C 243.28125 223.664062 242.882812 223.890625 242.492188 224.125 C 242.101562 224.355469 241.714844 224.59375 241.332031 224.832031 C 240.558594 225.308594 239.804688 225.796875 239.046875 226.28125 C 238.671875 226.519531 238.292969 226.761719 237.917969 227 C 237.730469 227.117188 237.542969 227.238281 237.351562 227.355469 C 237.164062 227.472656 236.976562 227.589844 236.789062 227.707031 C 236.410156 227.945312 236.03125 228.179688 235.65625 228.414062 C 235.28125 228.652344 234.90625 228.890625 234.535156 229.128906 C 233.042969 230.082031 231.578125 231.050781 230.140625 232.03125 C 229.78125 232.277344 229.417969 232.519531 229.0625 232.769531 C 228.886719 232.890625 228.707031 233.015625 228.53125 233.140625 C 228.351562 233.261719 228.175781 233.386719 228 233.511719 C 227.644531 233.761719 227.292969 234.007812 226.941406 234.257812 C 226.59375 234.507812 226.242188 234.757812 225.894531 235.007812 C 223.121094 237.019531 220.445312 239.074219 217.882812 241.175781 C 223.625 236.691406 229.921875 232.375 236.699219 228.300781 C 236.914062 228.175781 237.125 228.046875 237.335938 227.921875 C 237.550781 227.792969 237.761719 227.664062 237.976562 227.535156 C 238.402344 227.277344 238.824219 227.015625 239.25 226.75 C 240.101562 226.226562 240.953125 225.699219 241.816406 225.183594 C 242.679688 224.667969 243.554688 224.167969 244.449219 223.699219 C 245.34375 223.234375 246.257812 222.800781 247.203125 222.425781 C 247.4375 222.332031 247.671875 222.242188 247.914062 222.15625 L 248.089844 222.089844 C 248.152344 222.070312 248.210938 222.046875 248.269531 222.027344 L 248.453125 221.96875 L 248.542969 221.9375 C 248.570312 221.929688 248.601562 221.917969 248.632812 221.910156 C 249.101562 221.761719 249.59375 221.660156 250.089844 221.597656 C 250.585938 221.535156 251.089844 221.511719 251.59375 221.527344 C 252.097656 221.542969 252.597656 221.59375 253.09375 221.683594 C 253.589844 221.773438 254.078125 221.902344 254.546875 222.078125 C 255.011719 222.257812 255.460938 222.480469 255.867188 222.757812 C 256.273438 223.039062 256.632812 223.371094 256.917969 223.761719 C 257.0625 223.953125 257.1875 224.160156 257.285156 224.378906 C 257.386719 224.597656 257.46875 224.824219 257.523438 225.058594 C 257.582031 225.289062 257.617188 225.53125 257.632812 225.773438 C 257.644531 226.019531 257.636719 226.265625 257.613281 226.511719 C 257.589844 226.757812 257.550781 227.003906 257.496094 227.25 C 257.4375 227.492188 257.367188 227.734375 257.289062 227.972656 C 257.203125 228.214844 257.109375 228.449219 257.003906 228.683594 L 256.921875 228.855469 L 256.835938 229.027344 C 256.808594 229.085938 256.777344 229.140625 256.746094 229.199219 L 256.703125 229.285156 C 256.6875 229.3125 256.671875 229.339844 256.65625 229.367188 C 256.53125 229.59375 256.394531 229.816406 256.257812 230.035156 C 256.117188 230.253906 255.96875 230.46875 255.816406 230.679688 C 255.203125 231.527344 254.503906 232.328125 253.769531 233.101562 C 253.03125 233.875 252.257812 234.621094 251.472656 235.367188 C 250.683594 236.113281 249.882812 236.855469 249.097656 237.628906 C 248.898438 237.820312 248.703125 238.015625 248.507812 238.214844 C 248.3125 238.410156 248.121094 238.609375 247.929688 238.816406 C 247.742188 239.019531 247.550781 239.226562 247.367188 239.4375 C 247.183594 239.652344 247.003906 239.871094 246.828125 240.097656 C 246.65625 240.316406 246.484375 240.546875 246.324219 240.792969 C 246.164062 241.039062 246.011719 241.300781 245.890625 241.59375 C 245.828125 241.734375 245.773438 241.886719 245.734375 242.042969 C 245.710938 242.125 245.695312 242.203125 245.679688 242.285156 C 245.667969 242.367188 245.65625 242.449219 245.648438 242.535156 C 245.640625 242.617188 245.640625 242.703125 245.640625 242.785156 C 245.640625 242.828125 245.644531 242.871094 245.644531 242.914062 L 245.65625 243.039062 C 245.679688 243.210938 245.71875 243.375 245.769531 243.539062 L 245.792969 243.597656 C 245.800781 243.617188 245.804688 243.636719 245.816406 243.65625 L 245.863281 243.773438 L 245.917969 243.886719 C 245.9375 243.925781 245.957031 243.960938 245.980469 244 C 246.0625 244.144531 246.15625 244.277344 246.257812 244.40625 C 246.363281 244.53125 246.476562 244.648438 246.59375 244.753906 C 246.710938 244.863281 246.832031 244.960938 246.960938 245.050781 C 247.089844 245.144531 247.21875 245.226562 247.351562 245.304688 C 247.488281 245.378906 247.625 245.449219 247.761719 245.511719 C 248.042969 245.636719 248.332031 245.738281 248.625 245.816406 C 248.699219 245.835938 248.773438 245.855469 248.847656 245.871094 C 248.917969 245.886719 248.992188 245.902344 249.0625 245.917969 C 249.136719 245.929688 249.210938 245.945312 249.28125 245.957031 L 249.445312 245.984375 L 249.5 245.988281 C 249.792969 246.03125 250.085938 246.058594 250.378906 246.070312 C 250.96875 246.097656 251.550781 246.074219 252.128906 246.015625 C 252.707031 245.957031 253.277344 245.863281 253.839844 245.75 C 254.121094 245.691406 254.398438 245.628906 254.679688 245.566406 C 254.957031 245.5 255.234375 245.429688 255.507812 245.355469 C 255.78125 245.285156 256.058594 245.214844 256.332031 245.140625 C 256.605469 245.0625 256.878906 244.988281 257.152344 244.910156 L 257.359375 244.851562 C 257.425781 244.832031 257.496094 244.8125 257.5625 244.792969 C 257.699219 244.75 257.835938 244.710938 257.972656 244.667969 C 258.109375 244.628906 258.246094 244.585938 258.382812 244.546875 C 258.519531 244.503906 258.65625 244.460938 258.789062 244.417969 C 258.925781 244.375 259.0625 244.332031 259.199219 244.289062 C 259.335938 244.246094 259.472656 244.203125 259.605469 244.15625 C 259.875 244.066406 260.148438 243.972656 260.417969 243.882812 C 260.488281 243.859375 260.554688 243.835938 260.621094 243.8125 L 260.824219 243.742188 C 260.957031 243.691406 261.09375 243.644531 261.226562 243.597656 C 261.5 243.503906 261.765625 243.402344 262.035156 243.300781 C 262.171875 243.253906 262.304688 243.203125 262.4375 243.152344 C 262.507812 243.128906 262.574219 243.101562 262.640625 243.078125 L 262.839844 243 C 262.972656 242.949219 263.109375 242.894531 263.242188 242.84375 L 263.441406 242.765625 L 263.644531 242.6875 C 263.910156 242.578125 264.175781 242.46875 264.441406 242.363281 L 264.542969 242.324219 L 264.640625 242.28125 L 264.839844 242.195312 C 264.972656 242.140625 265.105469 242.085938 265.238281 242.027344 L 265.535156 241.902344 L 265.636719 241.859375 C 265.765625 241.800781 265.898438 241.742188 266.03125 241.6875 C 266.164062 241.628906 266.296875 241.570312 266.425781 241.511719 L 266.527344 241.46875 L 266.625 241.425781 L 266.820312 241.335938 C 266.953125 241.277344 267.085938 241.21875 267.214844 241.15625 L 267.414062 241.066406 L 267.511719 241.023438 L 267.609375 240.976562 C 267.871094 240.855469 268.132812 240.730469 268.394531 240.609375 C 269.4375 240.109375 270.472656 239.59375 271.503906 239.058594 C 271.757812 238.921875 272.015625 238.789062 272.273438 238.652344 C 272.402344 238.585938 272.527344 238.515625 272.65625 238.445312 C 272.785156 238.378906 272.910156 238.308594 273.039062 238.238281 C 273.167969 238.167969 273.296875 238.101562 273.421875 238.03125 C 273.550781 237.960938 273.675781 237.890625 273.804688 237.816406 C 274.058594 237.675781 274.3125 237.535156 274.566406 237.390625 C 274.785156 237.265625 275.003906 237.140625 275.222656 237.019531 C 275.441406 236.890625 275.660156 236.765625 275.878906 236.640625 L 276.207031 236.449219 L 276.53125 236.257812 C 276.746094 236.128906 276.964844 236 277.179688 235.871094 C 277.609375 235.609375 278.042969 235.351562 278.46875 235.085938 C 278.683594 234.957031 278.894531 234.824219 279.109375 234.691406 C 279.320312 234.558594 279.535156 234.429688 279.746094 234.292969 C 279.957031 234.164062 280.167969 234.027344 280.378906 233.894531 L 280.695312 233.691406 L 280.855469 233.589844 L 281.011719 233.488281 C 281.222656 233.355469 281.433594 233.21875 281.640625 233.082031 C 281.746094 233.015625 281.851562 232.949219 281.957031 232.878906 C 282.058594 232.8125 282.164062 232.742188 282.269531 232.675781 C 282.6875 232.402344 283.101562 232.125 283.515625 231.851562 C 283.722656 231.714844 283.925781 231.574219 284.132812 231.4375 C 284.339844 231.296875 284.546875 231.160156 284.75 231.019531 C 284.957031 230.878906 285.160156 230.742188 285.367188 230.601562 C 285.570312 230.460938 285.773438 230.320312 285.980469 230.183594 C 286.386719 229.902344 286.792969 229.621094 287.199219 229.339844 C 288.011719 228.773438 288.816406 228.210938 289.617188 227.640625 C 291.222656 226.503906 292.804688 225.359375 294.382812 224.214844 C 297.53125 221.929688 300.636719 219.65625 303.746094 217.460938 C 306.851562 215.261719 309.964844 213.144531 313.117188 211.171875 C 313.3125 211.050781 313.511719 210.929688 313.707031 210.808594 C 313.804688 210.746094 313.90625 210.683594 314.003906 210.625 C 314.101562 210.5625 314.199219 210.503906 314.300781 210.441406 C 314.496094 210.324219 314.695312 210.203125 314.890625 210.082031 C 315.089844 209.964844 315.289062 209.847656 315.488281 209.730469 C 316.28125 209.261719 317.078125 208.808594 317.886719 208.371094 C 319.496094 207.503906 321.132812 206.707031 322.792969 205.996094 C 324.453125 205.289062 326.136719 204.671875 327.847656 204.171875 C 329.554688 203.671875 331.28125 203.289062 333.019531 203.058594 C 333.890625 202.941406 334.757812 202.863281 335.628906 202.828125 L 335.710938 202.824219 L 335.789062 202.820312 L 335.953125 202.816406 C 336.0625 202.8125 336.171875 202.8125 336.28125 202.808594 C 336.386719 202.808594 336.496094 202.808594 336.605469 202.808594 C 336.710938 202.804688 336.820312 202.804688 336.929688 202.804688 C 337.039062 202.808594 337.144531 202.808594 337.253906 202.8125 L 337.414062 202.8125 C 337.46875 202.816406 337.523438 202.816406 337.578125 202.820312 C 337.6875 202.824219 337.792969 202.828125 337.902344 202.832031 C 338.007812 202.839844 338.117188 202.839844 338.222656 202.847656 C 339.945312 202.953125 341.644531 203.238281 343.277344 203.710938 C 344.097656 203.949219 344.894531 204.230469 345.671875 204.558594 C 346.453125 204.882812 347.207031 205.253906 347.941406 205.660156 C 349.40625 206.476562 350.765625 207.445312 352.023438 208.515625 C 350.671875 207.304688 349.179688 206.210938 347.550781 205.304688 " fill-opacity="1" fill-rule="nonzero"/></g><g clip-path="url(#ac0c8793fd)"><path fill="#231f20" d="M 274.105469 167.304688 C 274.105469 167.304688 264.84375 173.546875 256.039062 167.414062 C 256.039062 167.414062 266.878906 168.050781 274.105469 167.304688 Z M 264.964844 181.03125 C 264.75 181.132812 264.4375 181.28125 264.042969 181.457031 C 263.648438 181.628906 263.167969 181.828125 262.621094 182.03125 C 262.484375 182.082031 262.34375 182.136719 262.203125 182.1875 C 262.058594 182.242188 261.910156 182.296875 261.761719 182.351562 C 261.460938 182.457031 261.144531 182.566406 260.816406 182.667969 C 260.15625 182.875 259.449219 183.074219 258.707031 183.238281 C 258.613281 183.257812 258.519531 183.277344 258.425781 183.296875 C 258.332031 183.320312 258.238281 183.339844 258.144531 183.359375 C 257.957031 183.398438 257.765625 183.433594 257.574219 183.46875 C 257.191406 183.535156 256.800781 183.59375 256.40625 183.636719 C 255.617188 183.726562 254.808594 183.761719 254 183.722656 C 253.191406 183.683594 252.378906 183.566406 251.589844 183.355469 C 251.734375 183.324219 251.875 183.289062 252.019531 183.257812 L 252.453125 183.164062 L 253.316406 182.976562 C 253.894531 182.851562 254.46875 182.730469 255.039062 182.613281 C 255.613281 182.492188 256.183594 182.375 256.753906 182.261719 C 257.328125 182.152344 257.902344 182.046875 258.472656 181.941406 C 259.046875 181.839844 259.617188 181.738281 260.183594 181.640625 L 261.035156 181.492188 C 261.175781 181.46875 261.320312 181.445312 261.464844 181.421875 L 261.890625 181.355469 C 263.035156 181.179688 264.167969 181.015625 265.292969 180.863281 C 265.292969 180.863281 265.179688 180.921875 264.964844 181.03125 Z M 218.066406 234.800781 C 217.875 235.097656 217.476562 235.257812 217.097656 235.191406 C 216.46875 235.082031 216.148438 234.472656 216.464844 233.984375 C 216.65625 233.691406 217.050781 233.53125 217.433594 233.597656 C 218.0625 233.707031 218.378906 234.316406 218.066406 234.800781 Z M 299.214844 131.410156 C 299.199219 131.328125 299.15625 131.242188 299.09375 131.164062 C 299.027344 131.085938 298.9375 131.011719 298.828125 130.953125 C 298.164062 130.613281 297.472656 130.316406 296.761719 130.054688 L 296.625 130.003906 C 296.582031 129.984375 296.53125 129.96875 296.484375 129.953125 L 296.203125 129.859375 L 295.921875 129.769531 C 295.871094 129.753906 295.824219 129.738281 295.777344 129.726562 L 295.640625 129.683594 C 295.453125 129.625 295.265625 129.570312 295.078125 129.515625 C 294.894531 129.464844 294.707031 129.414062 294.523438 129.367188 C 293.035156 128.976562 291.5625 128.714844 290.089844 128.554688 C 288.617188 128.398438 287.152344 128.34375 285.699219 128.378906 C 285.339844 128.386719 284.972656 128.398438 284.609375 128.417969 C 284.25 128.4375 283.890625 128.464844 283.53125 128.492188 C 283.164062 128.519531 282.816406 128.558594 282.457031 128.597656 L 281.921875 128.660156 L 281.652344 128.691406 L 281.386719 128.730469 C 281.386719 128.730469 281.234375 128.746094 280.949219 128.796875 C 280.804688 128.820312 280.625 128.855469 280.417969 128.898438 C 280.3125 128.921875 280.199219 128.945312 280.078125 128.972656 C 279.960938 129 279.835938 129.035156 279.703125 129.070312 C 279.171875 129.21875 278.511719 129.410156 277.792969 129.703125 C 277.609375 129.773438 277.421875 129.851562 277.226562 129.933594 C 277.132812 129.972656 277.03125 130.015625 276.933594 130.058594 C 276.835938 130.101562 276.738281 130.148438 276.640625 130.195312 C 276.242188 130.386719 275.824219 130.59375 275.386719 130.828125 C 274.964844 131.070312 274.523438 131.335938 274.070312 131.625 C 273.839844 131.765625 273.621094 131.921875 273.394531 132.082031 C 273.171875 132.246094 272.941406 132.414062 272.710938 132.585938 C 272.597656 132.671875 272.480469 132.761719 272.363281 132.851562 C 272.25 132.945312 272.136719 133.039062 272.023438 133.132812 C 271.796875 133.324219 271.570312 133.523438 271.339844 133.726562 C 271.222656 133.832031 271.109375 133.933594 270.992188 134.042969 C 270.964844 134.066406 270.9375 134.09375 270.90625 134.121094 C 270.878906 134.148438 270.851562 134.175781 270.824219 134.203125 C 270.769531 134.257812 270.710938 134.3125 270.65625 134.371094 C 270.429688 134.59375 270.207031 134.820312 269.984375 135.058594 C 269.527344 135.527344 269.105469 136.042969 268.675781 136.582031 C 268.570312 136.714844 268.460938 136.851562 268.355469 136.992188 C 268.304688 137.0625 268.25 137.128906 268.199219 137.199219 C 268.148438 137.273438 268.097656 137.34375 268.046875 137.414062 C 267.84375 137.703125 267.644531 138 267.445312 138.300781 C 267.347656 138.453125 267.25 138.605469 267.152344 138.757812 C 267.101562 138.835938 267.050781 138.914062 267.003906 138.992188 C 266.960938 139.074219 266.914062 139.152344 266.867188 139.234375 C 266.683594 139.554688 266.5 139.882812 266.324219 140.21875 C 266.234375 140.386719 266.144531 140.554688 266.058594 140.726562 C 266.015625 140.8125 265.96875 140.894531 265.929688 140.984375 C 265.890625 141.070312 265.847656 141.160156 265.808594 141.246094 C 265.644531 141.601562 265.488281 141.960938 265.332031 142.328125 C 265.332031 142.328125 265.285156 142.195312 265.28125 141.871094 C 265.28125 141.707031 265.289062 141.492188 265.324219 141.222656 C 265.339844 141.089844 265.363281 140.941406 265.394531 140.773438 C 265.410156 140.691406 265.425781 140.605469 265.445312 140.515625 C 265.457031 140.472656 265.46875 140.425781 265.476562 140.378906 C 265.488281 140.332031 265.5 140.28125 265.515625 140.234375 C 265.617188 139.84375 265.761719 139.390625 265.960938 138.859375 C 266.058594 138.59375 266.171875 138.3125 266.300781 138.007812 C 266.4375 137.707031 266.589844 137.386719 266.761719 137.046875 C 266.933594 136.707031 267.125 136.34375 267.335938 135.960938 C 267.554688 135.582031 267.800781 135.179688 268.066406 134.757812 C 268.203125 134.542969 268.34375 134.328125 268.488281 134.101562 C 268.640625 133.882812 268.800781 133.65625 268.96875 133.421875 C 269.136719 133.191406 269.308594 132.953125 269.492188 132.707031 C 269.582031 132.585938 269.675781 132.460938 269.773438 132.335938 C 269.871094 132.210938 269.972656 132.089844 270.074219 131.960938 L 269.707031 132.117188 C 269.644531 132.144531 269.585938 132.171875 269.527344 132.199219 L 269.347656 132.28125 L 268.636719 132.609375 L 267.921875 132.945312 C 267.800781 133 267.683594 133.0625 267.570312 133.121094 L 267.222656 133.296875 L 266.527344 133.652344 L 266.183594 133.832031 L 266.007812 133.925781 C 265.953125 133.953125 265.894531 133.984375 265.839844 134.015625 C 265.390625 134.265625 264.941406 134.519531 264.492188 134.777344 L 264.15625 134.96875 L 263.988281 135.066406 L 263.824219 135.164062 L 263.175781 135.566406 L 262.523438 135.96875 C 262.308594 136.105469 262.089844 136.242188 261.882812 136.382812 C 261.460938 136.660156 261.042969 136.945312 260.625 137.230469 L 260.3125 137.445312 L 260.15625 137.550781 L 260.003906 137.660156 L 259.398438 138.101562 C 256.164062 140.460938 253.242188 143.0625 250.605469 145.789062 C 250.550781 145.847656 250.496094 145.902344 250.445312 145.957031 L 250.289062 146.128906 C 250.183594 146.246094 250.082031 146.359375 249.980469 146.476562 C 249.777344 146.710938 249.578125 146.945312 249.386719 147.1875 C 249.191406 147.425781 249.003906 147.671875 248.824219 147.917969 C 248.777344 147.976562 248.734375 148.039062 248.6875 148.105469 L 248.5625 148.292969 C 248.476562 148.417969 248.390625 148.542969 248.308594 148.667969 C 247.980469 149.175781 247.671875 149.695312 247.386719 150.222656 L 247.28125 150.421875 C 247.246094 150.488281 247.214844 150.554688 247.179688 150.621094 C 247.117188 150.753906 247.050781 150.890625 246.988281 151.023438 C 246.867188 151.292969 246.746094 151.566406 246.636719 151.835938 C 246.523438 152.109375 246.414062 152.386719 246.316406 152.660156 C 246.265625 152.796875 246.214844 152.9375 246.167969 153.074219 C 246.144531 153.144531 246.121094 153.214844 246.101562 153.28125 L 246.035156 153.492188 C 245.871094 154.050781 245.734375 154.617188 245.617188 155.179688 C 245.5625 155.464844 245.511719 155.746094 245.464844 156.03125 C 245.445312 156.171875 245.425781 156.3125 245.40625 156.457031 C 245.386719 156.597656 245.375 156.742188 245.359375 156.882812 C 245.308594 157.453125 245.28125 158.023438 245.285156 158.59375 C 245.285156 158.941406 245.289062 159.28125 245.300781 159.609375 C 245.304688 159.777344 245.3125 159.941406 245.320312 160.101562 C 245.320312 160.144531 245.324219 160.183594 245.328125 160.222656 C 245.328125 160.261719 245.332031 160.304688 245.335938 160.34375 C 245.339844 160.421875 245.347656 160.5 245.351562 160.582031 C 245.40625 161.210938 245.480469 161.796875 245.578125 162.332031 C 245.773438 163.394531 246.066406 164.238281 246.480469 164.738281 C 246.480469 164.738281 246.355469 164.675781 246.140625 164.464844 C 245.921875 164.253906 245.609375 163.886719 245.230469 163.273438 C 244.847656 162.65625 244.402344 161.789062 243.929688 160.566406 C 243.808594 160.261719 243.691406 159.929688 243.570312 159.578125 C 243.449219 159.226562 243.320312 158.847656 243.207031 158.445312 C 242.972656 157.640625 242.738281 156.730469 242.511719 155.699219 C 239.464844 160.085938 236.933594 164.5625 234.820312 168.960938 C 232.707031 173.363281 231.003906 177.691406 229.613281 181.824219 C 229.496094 182.171875 229.386719 182.519531 229.289062 182.871094 C 229.191406 183.222656 229.097656 183.574219 229.023438 183.929688 C 228.871094 184.644531 228.757812 185.359375 228.679688 186.078125 C 228.640625 186.4375 228.613281 186.796875 228.59375 187.15625 C 228.582031 187.335938 228.574219 187.519531 228.570312 187.699219 C 228.566406 187.789062 228.566406 187.878906 228.566406 187.96875 L 228.566406 188.238281 C 228.574219 188.960938 228.617188 189.679688 228.703125 190.394531 C 228.769531 190.957031 228.84375 191.5 228.929688 192.019531 C 228.972656 192.28125 229.019531 192.535156 229.066406 192.777344 C 229.117188 193.023438 229.171875 193.257812 229.226562 193.484375 C 229.449219 194.390625 229.71875 195.132812 230.035156 195.609375 C 230.035156 195.609375 229.683594 195.15625 229.128906 194.304688 C 228.851562 193.882812 228.523438 193.355469 228.160156 192.738281 C 228.066406 192.582031 227.976562 192.421875 227.882812 192.257812 C 227.789062 192.089844 227.691406 191.917969 227.597656 191.742188 C 227.40625 191.386719 227.207031 191.007812 227.003906 190.609375 C 226.714844 191.691406 226.46875 192.757812 226.226562 193.792969 C 226.109375 194.3125 225.992188 194.824219 225.878906 195.332031 C 225.820312 195.585938 225.765625 195.835938 225.710938 196.085938 C 225.660156 196.335938 225.609375 196.585938 225.558594 196.832031 C 225.359375 197.820312 225.171875 198.777344 224.996094 199.710938 C 224.949219 199.941406 224.90625 200.171875 224.863281 200.402344 C 224.855469 200.460938 224.84375 200.515625 224.832031 200.574219 C 224.824219 200.628906 224.8125 200.6875 224.804688 200.742188 C 224.785156 200.859375 224.765625 200.972656 224.746094 201.085938 C 224.667969 201.535156 224.597656 201.980469 224.523438 202.414062 C 224.382812 203.285156 224.253906 204.125 224.128906 204.933594 C 224.117188 205.03125 224.101562 205.132812 224.085938 205.230469 C 224.070312 205.332031 224.058594 205.429688 224.042969 205.53125 C 224.019531 205.726562 223.992188 205.921875 223.964844 206.117188 C 223.917969 206.503906 223.867188 206.882812 223.820312 207.25 C 223.726562 207.992188 223.640625 208.695312 223.566406 209.359375 C 223.546875 209.527344 223.527344 209.691406 223.507812 209.851562 C 223.492188 210.011719 223.472656 210.171875 223.457031 210.328125 C 223.425781 210.644531 223.398438 210.949219 223.371094 211.242188 C 223.367188 211.292969 223.355469 211.34375 223.335938 211.390625 L 222.105469 214.554688 L 222.003906 214.820312 L 221.902344 215.082031 L 221.707031 215.613281 L 220.914062 217.730469 L 220.515625 218.789062 L 220.320312 219.316406 L 220.21875 219.582031 L 220.125 219.847656 L 219.269531 222.21875 L 219.3125 222.234375 C 219.199219 222.539062 219.089844 222.84375 218.976562 223.148438 C 218.613281 224.15625 218.261719 225.15625 217.925781 226.140625 C 217.84375 226.386719 217.761719 226.632812 217.679688 226.878906 C 217.597656 227.125 217.519531 227.371094 217.441406 227.613281 C 217.285156 228.101562 217.132812 228.585938 216.984375 229.066406 C 216.863281 229.457031 216.746094 229.84375 216.628906 230.226562 L 213.390625 239.65625 C 213.320312 239.867188 213.628906 240.015625 213.785156 239.84375 C 215.574219 237.90625 219.207031 235.539062 220.234375 234.890625 C 220.355469 234.8125 220.335938 234.652344 220.203125 234.589844 C 219.296875 234.1875 218.601562 233.546875 218.078125 232.878906 C 219.257812 229.519531 220.429688 226.285156 221.59375 223.175781 L 221.617188 223.183594 L 222.429688 220.980469 C 222.628906 220.425781 222.84375 219.875 223.054688 219.324219 L 223.691406 217.664062 L 224.324219 216.007812 C 224.429688 215.730469 224.539062 215.457031 224.648438 215.179688 L 224.976562 214.355469 L 225.632812 212.703125 L 225.960938 211.878906 L 226.207031 211.257812 L 226.292969 211.050781 L 227.648438 207.761719 L 227.988281 206.941406 L 228.339844 206.121094 L 229.039062 204.484375 L 229.742188 202.847656 C 229.800781 202.710938 229.863281 202.574219 229.921875 202.4375 L 230.101562 202.03125 L 230.464844 201.214844 L 231.191406 199.585938 L 231.554688 198.773438 C 231.675781 198.5 231.804688 198.230469 231.929688 197.960938 L 233.429688 194.71875 L 234.980469 191.496094 C 237.082031 187.207031 239.296875 182.960938 241.671875 178.777344 C 242.253906 177.726562 242.875 176.695312 243.480469 175.65625 L 243.9375 174.875 L 243.996094 174.777344 L 244.054688 174.683594 L 244.171875 174.488281 L 244.410156 174.105469 L 245.355469 172.558594 L 245.589844 172.171875 C 245.667969 172.042969 245.746094 171.914062 245.828125 171.789062 L 247.292969 169.492188 L 247.414062 169.300781 L 247.476562 169.203125 L 247.539062 169.109375 L 247.792969 168.730469 L 248.800781 167.214844 L 249.054688 166.839844 L 249.179688 166.648438 C 249.222656 166.585938 249.265625 166.523438 249.308594 166.460938 L 250.351562 164.960938 L 250.871094 164.210938 C 251.046875 163.964844 251.230469 163.71875 251.410156 163.46875 L 252.484375 161.988281 L 252.757812 161.621094 L 253.035156 161.253906 L 253.59375 160.523438 L 254.148438 159.789062 L 254.285156 159.609375 C 254.332031 159.546875 254.382812 159.488281 254.429688 159.425781 L 254.714844 159.066406 L 255.863281 157.621094 C 255.914062 157.5625 255.960938 157.5 256.007812 157.441406 L 256.15625 157.265625 L 256.453125 156.910156 L 257.042969 156.195312 L 257.636719 155.488281 L 258.25 154.785156 L 258.859375 154.085938 L 259.164062 153.734375 C 259.21875 153.679688 259.265625 153.621094 259.320312 153.5625 L 259.476562 153.390625 L 260.738281 152.015625 L 260.898438 151.839844 C 260.949219 151.785156 261.003906 151.730469 261.058594 151.671875 L 261.382812 151.335938 L 262.359375 150.320312 L 262.523438 150.152344 C 262.578125 150.097656 262.632812 150.042969 262.691406 149.988281 L 263.359375 149.324219 C 265.152344 147.5625 267.03125 145.859375 269.023438 144.246094 L 268.890625 144.355469 C 268.847656 144.390625 268.804688 144.425781 268.761719 144.464844 L 268.507812 144.6875 L 267.996094 145.128906 L 267.488281 145.574219 L 267.359375 145.683594 L 267.296875 145.738281 L 267.234375 145.796875 L 266.988281 146.023438 L 266 146.929688 L 265.753906 147.160156 L 265.511719 147.390625 L 265.03125 147.855469 L 264.554688 148.320312 L 264.316406 148.554688 C 264.273438 148.59375 264.234375 148.632812 264.195312 148.671875 L 264.078125 148.789062 L 263.152344 149.738281 L 262.6875 150.210938 C 262.535156 150.371094 262.386719 150.535156 262.238281 150.695312 L 261.339844 151.664062 C 258.964844 154.257812 256.765625 156.957031 254.695312 159.722656 C 252.628906 162.488281 250.691406 165.320312 248.855469 168.195312 L 248.164062 169.273438 L 247.992188 169.542969 L 247.828125 169.816406 L 247.496094 170.359375 L 246.828125 171.449219 L 246.496094 171.996094 L 246.328125 172.265625 L 246.167969 172.539062 L 244.882812 174.738281 L 244.722656 175.011719 L 244.640625 175.148438 L 244.5625 175.289062 L 244.253906 175.839844 L 243.628906 176.949219 L 243.007812 178.054688 C 242.957031 178.148438 242.90625 178.242188 242.855469 178.332031 L 242.707031 178.613281 L 242.40625 179.167969 C 242.007812 179.914062 241.605469 180.65625 241.207031 181.398438 L 240.046875 183.644531 L 239.757812 184.207031 C 239.660156 184.394531 239.5625 184.582031 239.46875 184.769531 L 238.910156 185.902344 L 238.347656 187.03125 L 238.070312 187.597656 L 237.859375 188.019531 L 237.792969 188.160156 L 236.707031 190.4375 L 236.167969 191.574219 L 235.644531 192.714844 L 234.597656 195.003906 L 234.46875 195.289062 C 234.425781 195.382812 234.382812 195.480469 234.339844 195.574219 L 234.089844 196.148438 L 233.078125 198.449219 C 232.910156 198.832031 232.742188 199.214844 232.582031 199.597656 L 231.117188 203.066406 C 231.035156 203.253906 230.960938 203.449219 230.878906 203.644531 L 230.644531 204.222656 L 229.703125 206.542969 L 229.46875 207.121094 L 229.351562 207.414062 L 229.238281 207.703125 L 228.785156 208.867188 L 227.875 211.199219 L 227.648438 211.78125 L 227.429688 212.367188 L 226.992188 213.535156 C 226.804688 214.03125 227.386719 214.488281 227.839844 214.203125 C 228.539062 213.765625 229.226562 213.328125 229.90625 212.894531 C 230.246094 212.679688 230.585938 212.464844 230.921875 212.25 C 231.257812 212.035156 231.59375 211.820312 231.925781 211.609375 C 232.589844 211.179688 233.242188 210.753906 233.882812 210.328125 C 234.203125 210.117188 234.523438 209.902344 234.839844 209.691406 C 235.15625 209.480469 235.476562 209.273438 235.789062 209.0625 C 236.421875 208.644531 237.039062 208.230469 237.648438 207.8125 C 237.949219 207.605469 238.253906 207.398438 238.550781 207.191406 C 238.851562 206.984375 239.144531 206.773438 239.445312 206.570312 C 240.636719 205.753906 241.789062 204.941406 242.898438 204.128906 C 247.375 200.910156 251.324219 197.820312 254.816406 194.847656 C 253.765625 194.945312 252.808594 195.019531 251.9375 195.070312 C 251.070312 195.125 250.289062 195.160156 249.589844 195.171875 C 248.191406 195.203125 247.109375 195.15625 246.292969 195.078125 C 245.476562 194.996094 244.921875 194.886719 244.570312 194.796875 C 244.222656 194.703125 244.078125 194.628906 244.078125 194.628906 C 245.664062 195.140625 247.46875 195.035156 249.289062 194.605469 C 249.515625 194.550781 249.742188 194.492188 249.96875 194.429688 C 250.082031 194.394531 250.199219 194.363281 250.3125 194.332031 C 250.425781 194.296875 250.539062 194.261719 250.652344 194.226562 C 251.109375 194.085938 251.566406 193.929688 252.015625 193.761719 C 252.917969 193.425781 253.792969 193.042969 254.625 192.640625 C 254.835938 192.542969 255.039062 192.445312 255.246094 192.34375 C 255.449219 192.246094 255.652344 192.144531 255.847656 192.046875 C 256.242188 191.847656 256.621094 191.648438 256.984375 191.453125 C 257.34375 191.257812 257.6875 191.066406 258.011719 190.882812 C 258.335938 190.699219 258.640625 190.523438 258.921875 190.363281 C 260.054688 189.714844 260.796875 189.238281 260.964844 189.160156 C 260.980469 189.152344 261.003906 189.15625 261.019531 189.171875 C 261.039062 189.1875 261.066406 189.191406 261.085938 189.171875 C 264.070312 186.292969 266.628906 183.527344 268.84375 180.855469 C 271.058594 178.183594 272.929688 175.605469 274.535156 173.105469 C 274.632812 172.949219 274.730469 172.789062 274.828125 172.632812 C 274.929688 172.480469 275.027344 172.328125 275.125 172.171875 C 275.316406 171.863281 275.503906 171.554688 275.691406 171.246094 C 275.734375 171.167969 275.78125 171.089844 275.828125 171.011719 L 275.894531 170.894531 L 275.964844 170.78125 C 276.054688 170.628906 276.144531 170.476562 276.234375 170.324219 C 276.414062 170.023438 276.585938 169.714844 276.753906 169.410156 C 276.796875 169.332031 276.839844 169.253906 276.882812 169.179688 C 276.925781 169.101562 276.964844 169.027344 277.007812 168.953125 C 277.09375 168.804688 277.175781 168.65625 277.257812 168.503906 C 277.421875 168.203125 277.582031 167.902344 277.738281 167.597656 C 277.777344 167.519531 277.816406 167.449219 277.859375 167.375 C 277.898438 167.300781 277.9375 167.226562 277.976562 167.152344 C 278.054688 167.003906 278.128906 166.859375 278.207031 166.707031 C 278.28125 166.558594 278.355469 166.410156 278.429688 166.261719 C 278.46875 166.1875 278.503906 166.113281 278.542969 166.035156 C 278.578125 165.960938 278.613281 165.886719 278.652344 165.8125 C 279.824219 163.453125 280.820312 161.148438 281.746094 158.890625 C 281.398438 158.90625 281.0625 158.921875 280.734375 158.9375 C 280.398438 158.964844 280.074219 158.988281 279.753906 159.011719 C 279.59375 159.027344 279.433594 159.039062 279.273438 159.050781 C 279.195312 159.054688 279.117188 159.0625 279.039062 159.066406 C 279 159.070312 278.960938 159.074219 278.921875 159.074219 C 278.882812 159.078125 278.84375 159.082031 278.804688 159.085938 C 278.492188 159.117188 278.191406 159.148438 277.894531 159.179688 C 277.59375 159.210938 277.296875 159.238281 277.011719 159.265625 C 276.976562 159.269531 276.941406 159.273438 276.90625 159.277344 C 276.871094 159.28125 276.835938 159.285156 276.796875 159.289062 C 276.726562 159.296875 276.65625 159.304688 276.589844 159.3125 C 276.449219 159.332031 276.308594 159.347656 276.171875 159.363281 C 275.894531 159.394531 275.625 159.425781 275.367188 159.457031 C 275.234375 159.472656 275.101562 159.484375 274.972656 159.5 C 274.910156 159.507812 274.84375 159.515625 274.78125 159.519531 C 274.71875 159.53125 274.65625 159.535156 274.59375 159.546875 C 274.09375 159.609375 273.617188 159.671875 273.164062 159.722656 C 272.9375 159.75 272.714844 159.773438 272.5 159.800781 C 272.390625 159.8125 272.289062 159.828125 272.183594 159.839844 C 272.082031 159.851562 271.976562 159.867188 271.878906 159.878906 C 271.472656 159.929688 271.09375 159.972656 270.734375 160.011719 C 270.554688 160.027344 270.382812 160.046875 270.214844 160.0625 C 270.128906 160.070312 270.046875 160.078125 269.96875 160.085938 C 269.886719 160.09375 269.804688 160.101562 269.726562 160.109375 C 268.488281 160.242188 267.601562 160.28125 267.027344 160.285156 C 266.957031 160.285156 266.890625 160.285156 266.828125 160.285156 C 266.769531 160.28125 266.710938 160.28125 266.660156 160.28125 C 266.554688 160.28125 266.472656 160.277344 266.402344 160.273438 C 266.269531 160.265625 266.203125 160.257812 266.203125 160.257812 C 266.316406 160.25 266.433594 160.238281 266.550781 160.226562 C 266.609375 160.21875 266.667969 160.210938 266.726562 160.203125 C 266.785156 160.195312 266.84375 160.1875 266.90625 160.179688 C 267.148438 160.144531 267.394531 160.101562 267.648438 160.046875 C 268.152344 159.941406 268.679688 159.804688 269.214844 159.632812 C 269.285156 159.613281 269.351562 159.59375 269.421875 159.570312 C 269.488281 159.550781 269.558594 159.53125 269.628906 159.507812 C 269.765625 159.464844 269.90625 159.421875 270.042969 159.375 C 270.324219 159.28125 270.605469 159.183594 270.890625 159.078125 C 271.453125 158.863281 272.042969 158.65625 272.625 158.421875 C 272.769531 158.363281 272.917969 158.304688 273.0625 158.246094 C 273.136719 158.214844 273.207031 158.183594 273.28125 158.152344 L 273.390625 158.105469 L 273.503906 158.066406 C 273.796875 157.949219 274.09375 157.828125 274.386719 157.707031 C 274.535156 157.648438 274.683594 157.585938 274.828125 157.523438 L 275.15625 157.382812 C 275.195312 157.367188 275.230469 157.355469 275.269531 157.339844 C 275.5625 157.222656 275.855469 157.101562 276.148438 156.980469 C 276.292969 156.921875 276.4375 156.859375 276.582031 156.800781 C 276.652344 156.769531 276.722656 156.738281 276.796875 156.707031 C 276.867188 156.675781 276.941406 156.648438 277.011719 156.621094 C 277.300781 156.507812 277.585938 156.390625 277.863281 156.277344 C 278.003906 156.21875 278.140625 156.160156 278.28125 156.101562 L 278.382812 156.058594 L 278.488281 156.019531 C 278.558594 155.992188 278.625 155.964844 278.695312 155.941406 C 278.96875 155.832031 279.238281 155.726562 279.5 155.621094 C 279.851562 155.476562 280.191406 155.335938 280.515625 155.167969 C 280.679688 155.085938 280.835938 154.996094 280.992188 154.902344 L 281.109375 154.832031 L 281.222656 154.765625 C 281.300781 154.71875 281.375 154.671875 281.453125 154.625 C 281.601562 154.527344 281.746094 154.429688 281.890625 154.320312 C 281.960938 154.269531 282.03125 154.214844 282.101562 154.160156 L 282.203125 154.078125 L 282.308594 153.996094 C 282.582031 153.777344 282.84375 153.542969 283.085938 153.289062 C 284.078125 152.292969 284.871094 151.082031 285.492188 149.640625 C 285.613281 149.355469 285.738281 149.074219 285.859375 148.792969 C 285.984375 148.515625 286.109375 148.238281 286.234375 147.964844 C 286.300781 147.824219 286.363281 147.683594 286.425781 147.546875 C 286.488281 147.410156 286.554688 147.273438 286.621094 147.140625 C 286.75 146.867188 286.878906 146.59375 287.011719 146.324219 C 287.144531 146.054688 287.277344 145.789062 287.410156 145.523438 C 287.445312 145.457031 287.476562 145.390625 287.511719 145.324219 C 287.542969 145.257812 287.578125 145.191406 287.613281 145.125 C 287.683594 144.996094 287.75 144.867188 287.820312 144.738281 C 287.890625 144.605469 287.957031 144.476562 288.027344 144.347656 C 288.0625 144.28125 288.097656 144.214844 288.132812 144.152344 L 288.183594 144.054688 L 288.238281 143.960938 C 288.382812 143.703125 288.523438 143.453125 288.664062 143.203125 C 288.808594 142.945312 288.953125 142.703125 289.101562 142.460938 C 289.175781 142.335938 289.25 142.214844 289.324219 142.09375 C 289.363281 142.03125 289.398438 141.972656 289.433594 141.910156 C 289.472656 141.847656 289.511719 141.792969 289.546875 141.730469 C 289.699219 141.496094 289.851562 141.257812 290.003906 141.023438 C 290.039062 140.964844 290.078125 140.90625 290.117188 140.847656 C 290.15625 140.789062 290.195312 140.734375 290.230469 140.675781 C 290.3125 140.5625 290.386719 140.449219 290.464844 140.335938 C 290.542969 140.222656 290.621094 140.109375 290.699219 140 C 290.738281 139.941406 290.777344 139.886719 290.816406 139.832031 C 290.855469 139.777344 290.894531 139.722656 290.933594 139.667969 C 291.09375 139.449219 291.253906 139.234375 291.410156 139.019531 C 291.492188 138.910156 291.570312 138.808594 291.652344 138.707031 C 291.730469 138.601562 291.8125 138.5 291.894531 138.398438 C 291.972656 138.296875 292.054688 138.191406 292.132812 138.09375 C 292.214844 137.992188 292.296875 137.894531 292.378906 137.796875 C 292.542969 137.601562 292.703125 137.40625 292.867188 137.21875 C 293.03125 137.03125 293.195312 136.851562 293.359375 136.667969 C 293.441406 136.578125 293.519531 136.488281 293.601562 136.402344 C 293.683594 136.316406 293.765625 136.230469 293.847656 136.144531 C 294.011719 135.976562 294.171875 135.808594 294.335938 135.644531 C 294.664062 135.328125 294.980469 135.015625 295.300781 134.734375 C 295.382812 134.664062 295.460938 134.59375 295.539062 134.523438 C 295.617188 134.453125 295.695312 134.382812 295.773438 134.320312 C 295.933594 134.1875 296.089844 134.058594 296.242188 133.933594 C 297.4375 132.949219 298.417969 132.265625 299.007812 131.859375 C 299.179688 131.746094 299.246094 131.582031 299.214844 131.410156 " fill-opacity="1" fill-rule="nonzero"/></g><g fill="#000000" fill-opacity="1"><g transform="translate(56.438857, 284.210635)"><g><path d="M 14.890625 -13.140625 C 14.117188 -15.378906 13.675781 -16.539062 13.5625 -16.625 C 13.476562 -16.707031 13.351562 -16.578125 13.1875 -16.234375 C 13.132812 -16.148438 12.960938 -15.726562 12.671875 -14.96875 C 11.347656 -11.519531 10.769531 -9.738281 10.9375 -9.625 C 11.019531 -9.539062 11.800781 -9.539062 13.28125 -9.625 C 14.769531 -9.707031 15.570312 -9.78125 15.6875 -9.84375 C 15.851562 -9.925781 15.585938 -11.023438 14.890625 -13.140625 Z M 13.5625 -25.53125 C 14.945312 -25.695312 15.65625 -25.796875 15.6875 -25.828125 C 15.769531 -25.828125 16 -25.300781 16.375 -24.25 C 16.988281 -22.53125 17.789062 -20.507812 18.78125 -18.1875 C 18.84375 -18.050781 18.960938 -17.753906 19.140625 -17.296875 C 19.328125 -16.847656 19.566406 -16.285156 19.859375 -15.609375 C 20.160156 -14.929688 20.4375 -14.304688 20.6875 -13.734375 C 23.601562 -6.804688 25.582031 -2.46875 26.625 -0.71875 L 27.140625 0.125 L 26.203125 0.375 C 25.472656 0.570312 24.335938 0.832031 22.796875 1.15625 C 21.253906 1.488281 20.300781 1.65625 19.9375 1.65625 L 19.203125 1.65625 L 19.078125 0.71875 C 19.054688 0.1875 18.816406 -0.890625 18.359375 -2.515625 C 17.910156 -4.148438 17.613281 -5.035156 17.46875 -5.171875 C 17.351562 -5.285156 16.789062 -5.34375 15.78125 -5.34375 C 15.039062 -5.34375 13.894531 -5.300781 12.34375 -5.21875 C 10.789062 -5.132812 9.84375 -5.050781 9.5 -4.96875 C 9.351562 -4.9375 9.1875 -4.707031 9 -4.28125 C 8.820312 -3.851562 8.519531 -2.976562 8.09375 -1.65625 C 7.414062 0.351562 7.050781 1.441406 7 1.609375 C 6.9375 1.671875 6.226562 1.503906 4.875 1.109375 C 3.007812 0.679688 1.9375 0.4375 1.65625 0.375 C 0.863281 0.175781 0.46875 0.0664062 0.46875 0.046875 C 0.46875 0.015625 0.78125 -0.578125 1.40625 -1.734375 C 2.394531 -3.429688 3.253906 -5.085938 3.984375 -6.703125 C 4.722656 -8.316406 5.851562 -11 7.375 -14.75 C 9.300781 -19.5 10.472656 -22.679688 10.890625 -24.296875 C 11.035156 -24.859375 11.179688 -25.171875 11.328125 -25.234375 C 11.429688 -25.265625 12.175781 -25.363281 13.5625 -25.53125 Z M 13.5625 -25.53125 "/></g></g></g><g fill="#000000" fill-opacity="1"><g transform="translate(84.002131, 284.210635)"><g><path d="M 15.1875 -17.859375 C 15.207031 -17.941406 15.289062 -17.984375 15.4375 -17.984375 C 15.488281 -17.984375 15.554688 -17.96875 15.640625 -17.9375 C 16.066406 -17.882812 17.113281 -17.800781 18.78125 -17.6875 C 20.5625 -17.570312 21.453125 -17.472656 21.453125 -17.390625 C 21.453125 -17.273438 21.03125 -16.285156 20.1875 -14.421875 C 19.082031 -12.015625 18.035156 -9.640625 17.046875 -7.296875 C 15.066406 -2.660156 13.90625 0.222656 13.5625 1.359375 C 13.507812 1.441406 13.320312 1.503906 13 1.546875 C 12.675781 1.585938 11.921875 1.609375 10.734375 1.609375 L 7.9375 1.609375 L 7.546875 0.25 C 7.148438 -0.988281 6.035156 -3.800781 4.203125 -8.1875 C 4.085938 -8.4375 3.765625 -9.195312 3.234375 -10.46875 C 2.710938 -11.738281 2.367188 -12.585938 2.203125 -13.015625 C 1.640625 -14.367188 1.1875 -15.421875 0.84375 -16.171875 C 0.507812 -16.921875 0.34375 -17.335938 0.34375 -17.421875 C 0.34375 -17.484375 1.132812 -17.570312 2.71875 -17.6875 C 4.300781 -17.800781 5.390625 -17.859375 5.984375 -17.859375 L 6.53125 -17.859375 L 6.828125 -16.75 C 7.253906 -15.21875 8.023438 -13.023438 9.140625 -10.171875 C 10.253906 -7.316406 10.851562 -5.890625 10.9375 -5.890625 C 11 -5.890625 11.191406 -6.304688 11.515625 -7.140625 C 11.835938 -7.972656 12.238281 -9.066406 12.71875 -10.421875 C 13.195312 -11.785156 13.632812 -13.128906 14.03125 -14.453125 C 14.207031 -14.941406 14.394531 -15.472656 14.59375 -16.046875 C 14.789062 -16.628906 14.9375 -17.0625 15.03125 -17.34375 C 15.132812 -17.625 15.1875 -17.796875 15.1875 -17.859375 Z M 15.1875 -17.859375 "/></g></g></g><g fill="#000000" fill-opacity="1"><g transform="translate(105.84072, 284.210635)"><g><path d="M 10.9375 -3.609375 C 11.195312 -3.773438 11.335938 -3.945312 11.359375 -4.125 C 11.390625 -4.3125 11.390625 -4.832031 11.359375 -5.6875 L 11.328125 -7.421875 L 10.34375 -7.25 C 8.539062 -6.820312 7.441406 -6.101562 7.046875 -5.09375 C 6.816406 -4.582031 6.785156 -4.054688 6.953125 -3.515625 C 7.117188 -2.984375 7.390625 -2.675781 7.765625 -2.59375 C 8.210938 -2.445312 8.738281 -2.472656 9.34375 -2.671875 C 9.957031 -2.867188 10.488281 -3.179688 10.9375 -3.609375 Z M 8.015625 -17.765625 C 10.046875 -18.273438 11.898438 -18.171875 13.578125 -17.453125 C 15.265625 -16.734375 16.347656 -15.550781 16.828125 -13.90625 C 17.003906 -13.476562 17.132812 -11.785156 17.21875 -8.828125 C 17.300781 -5.828125 17.398438 -4.144531 17.515625 -3.78125 C 17.710938 -2.925781 18.222656 -2.5 19.046875 -2.5 C 19.546875 -2.5 19.867188 -2.457031 20.015625 -2.375 C 20.160156 -2.289062 20.144531 -2.09375 19.96875 -1.78125 C 19.71875 -1.332031 19.226562 -0.78125 18.5 -0.125 C 17.78125 0.519531 17.15625 0.972656 16.625 1.234375 C 16.164062 1.453125 15.820312 1.585938 15.59375 1.640625 C 15.375 1.703125 15.140625 1.707031 14.890625 1.65625 C 13.835938 1.570312 12.929688 1.09375 12.171875 0.21875 L 11.703125 -0.34375 L 11.15625 0.046875 C 10.757812 0.359375 10.164062 0.679688 9.375 1.015625 C 8.8125 1.242188 8.363281 1.40625 8.03125 1.5 C 7.707031 1.601562 7.207031 1.671875 6.53125 1.703125 C 5.820312 1.722656 5.332031 1.71875 5.0625 1.6875 C 4.800781 1.664062 4.425781 1.539062 3.9375 1.3125 C 1.875 0.382812 0.929688 -1.335938 1.109375 -3.859375 C 1.273438 -5.953125 2.460938 -7.660156 4.671875 -8.984375 C 5.117188 -9.210938 5.800781 -9.503906 6.71875 -9.859375 C 7.632812 -10.210938 8.40625 -10.445312 9.03125 -10.5625 C 9.113281 -10.59375 9.332031 -10.632812 9.6875 -10.6875 C 10.039062 -10.738281 10.300781 -10.78125 10.46875 -10.8125 L 11.453125 -10.984375 L 11.359375 -11.75 C 11.160156 -13.300781 10.484375 -14.097656 9.328125 -14.140625 C 8.171875 -14.179688 6.742188 -13.46875 5.046875 -12 C 4.703125 -11.601562 4.472656 -11.390625 4.359375 -11.359375 C 4.253906 -11.335938 4.160156 -11.378906 4.078125 -11.484375 C 3.785156 -11.910156 3.101562 -12.800781 2.03125 -14.15625 L 1.53125 -14.75 L 2.03125 -15.09375 C 2.769531 -15.570312 3.816406 -16.101562 5.171875 -16.6875 C 6.523438 -17.269531 7.472656 -17.628906 8.015625 -17.765625 Z M 8.015625 -17.765625 "/></g></g></g><g fill="#000000" fill-opacity="1"><g transform="translate(125.559054, 284.210635)"><g><path d="M 12.671875 -17.9375 C 13.160156 -18.019531 13.644531 -18.0625 14.125 -18.0625 C 15.25 -18.0625 16.429688 -17.753906 17.671875 -17.140625 C 18.921875 -16.535156 19.546875 -15.375 19.546875 -13.65625 L 19.546875 -6.53125 C 19.578125 -2.320312 19.632812 0.132812 19.71875 0.84375 C 19.769531 1.269531 19.796875 1.554688 19.796875 1.703125 C 19.796875 1.722656 19.789062 1.753906 19.78125 1.796875 C 19.769531 1.835938 19.734375 1.859375 19.671875 1.859375 C 19.617188 1.859375 19.550781 1.847656 19.46875 1.828125 C 19.207031 1.796875 18.101562 1.65625 16.15625 1.40625 L 13.265625 1.015625 L 13.359375 0.375 C 13.441406 -0.351562 13.53125 -1.910156 13.625 -4.296875 C 13.726562 -6.691406 13.78125 -8.398438 13.78125 -9.421875 C 13.78125 -9.898438 13.765625 -10.265625 13.734375 -10.515625 C 13.679688 -11.304688 13.625 -11.8125 13.5625 -12.03125 C 13.507812 -12.257812 13.359375 -12.503906 13.109375 -12.765625 C 12.765625 -13.128906 12.335938 -13.3125 11.828125 -13.3125 C 10.898438 -13.28125 9.910156 -12.925781 8.859375 -12.25 L 7.890625 -11.578125 L 7.890625 -5.46875 C 7.890625 -3.238281 7.929688 -1.429688 8.015625 -0.046875 C 8.097656 0.773438 8.140625 1.328125 8.140625 1.609375 C 8.140625 1.753906 8.125 1.835938 8.09375 1.859375 C 8.09375 1.859375 8.050781 1.859375 7.96875 1.859375 C 7.6875 1.859375 6.835938 1.757812 5.421875 1.5625 C 3.734375 1.34375 2.691406 1.234375 2.296875 1.234375 L 1.703125 1.234375 L 1.828125 0.25 C 2.046875 -2.007812 2.160156 -4.035156 2.171875 -5.828125 C 2.191406 -7.628906 2.203125 -8.640625 2.203125 -8.859375 C 2.203125 -12.140625 2.101562 -14.554688 1.90625 -16.109375 C 1.820312 -16.734375 1.78125 -17.128906 1.78125 -17.296875 C 1.78125 -17.328125 1.78125 -17.34375 1.78125 -17.34375 C 1.78125 -17.34375 1.796875 -17.34375 1.828125 -17.34375 C 2.046875 -17.34375 3.472656 -17.1875 6.109375 -16.875 C 6.816406 -16.757812 7.257812 -16.671875 7.4375 -16.609375 C 7.625 -16.554688 7.742188 -16.445312 7.796875 -16.28125 C 7.859375 -16.113281 7.914062 -16.03125 7.96875 -16.03125 C 8 -16.03125 8.039062 -16.039062 8.09375 -16.0625 C 8.15625 -16.09375 8.539062 -16.28125 9.25 -16.625 C 10.6875 -17.332031 11.828125 -17.769531 12.671875 -17.9375 Z M 12.671875 -17.9375 "/></g></g></g><g fill="#000000" fill-opacity="1"><g transform="translate(147.058407, 284.210635)"><g><path d="M 4.796875 -24.71875 C 4.816406 -24.78125 4.875 -24.8125 4.96875 -24.8125 C 5.019531 -24.8125 5.085938 -24.796875 5.171875 -24.765625 C 5.597656 -24.566406 6.546875 -24.335938 8.015625 -24.078125 C 9.484375 -23.828125 10.457031 -23.703125 10.9375 -23.703125 C 11.019531 -23.703125 11.066406 -23.582031 11.078125 -23.34375 C 11.097656 -23.101562 11.109375 -22.882812 11.109375 -22.6875 C 11.109375 -22.320312 11.09375 -21.765625 11.0625 -21.015625 C 11.039062 -20.265625 10.984375 -19.363281 10.890625 -18.3125 L 10.8125 -17.265625 L 11.484375 -17.390625 C 12.054688 -17.503906 12.820312 -17.6875 13.78125 -17.9375 C 14.519531 -18.164062 15.015625 -18.28125 15.265625 -18.28125 C 15.378906 -18.28125 15.453125 -18.25 15.484375 -18.1875 C 15.535156 -17.9375 15.769531 -17.226562 16.1875 -16.0625 C 16.613281 -14.90625 16.882812 -14.21875 17 -14 L 17.34375 -13.359375 L 16.671875 -13.265625 C 16.359375 -13.210938 15.550781 -13.113281 14.25 -12.96875 C 13.113281 -12.832031 12.28125 -12.722656 11.75 -12.640625 L 10.890625 -12.546875 L 10.859375 -10.609375 C 10.859375 -10.234375 10.859375 -9.863281 10.859375 -9.5 C 10.859375 -8.457031 10.882812 -7.492188 10.9375 -6.609375 C 11.050781 -5.222656 11.191406 -4.21875 11.359375 -3.59375 C 11.535156 -2.976562 11.804688 -2.570312 12.171875 -2.375 C 12.398438 -2.207031 12.894531 -2.085938 13.65625 -2.015625 C 14.414062 -1.941406 15.035156 -1.90625 15.515625 -1.90625 C 15.828125 -1.90625 16.125 -1.921875 16.40625 -1.953125 C 16.6875 -1.984375 16.925781 -2 17.125 -2 C 17.382812 -2 17.515625 -1.96875 17.515625 -1.90625 C 17.515625 -1.769531 17.144531 -1.328125 16.40625 -0.578125 C 15.675781 0.171875 15.125 0.675781 14.75 0.9375 C 14.019531 1.414062 13.34375 1.753906 12.71875 1.953125 C 12.09375 2.148438 11.316406 2.25 10.390625 2.25 C 9.597656 2.25 9.050781 2.21875 8.75 2.15625 C 8.457031 2.101562 8.085938 1.960938 7.640625 1.734375 C 6.984375 1.421875 6.429688 1.039062 5.984375 0.59375 C 5.441406 -0.03125 5.128906 -0.640625 5.046875 -1.234375 C 4.960938 -1.828125 4.921875 -2.828125 4.921875 -4.234375 C 4.921875 -5.023438 4.9375 -5.988281 4.96875 -7.125 L 5.046875 -11.828125 L 3.640625 -11.484375 C 2.765625 -11.285156 2.269531 -11.1875 2.15625 -11.1875 C 2.132812 -11.1875 2.125 -11.1875 2.125 -11.1875 C 2.09375 -11.21875 1.882812 -11.90625 1.5 -13.25 C 1.125 -14.59375 0.894531 -15.421875 0.8125 -15.734375 C 0.8125 -15.765625 0.8125 -15.789062 0.8125 -15.8125 C 0.8125 -15.957031 0.882812 -16.039062 1.03125 -16.0625 C 1.1875 -16.09375 1.734375 -16.140625 2.671875 -16.203125 C 3.910156 -16.253906 4.617188 -16.3125 4.796875 -16.375 C 4.910156 -16.394531 4.972656 -16.828125 4.984375 -17.671875 C 4.992188 -18.523438 5 -19.035156 5 -19.203125 C 5 -20.535156 4.941406 -21.8125 4.828125 -23.03125 C 4.773438 -23.675781 4.75 -24.140625 4.75 -24.421875 C 4.75 -24.597656 4.765625 -24.695312 4.796875 -24.71875 Z M 4.796875 -24.71875 "/></g></g></g><g fill="#000000" fill-opacity="1"><g transform="translate(165.20776, 284.210635)"><g><path d="M 4.234375 -25.53125 C 4.546875 -25.664062 4.890625 -25.734375 5.265625 -25.734375 C 5.628906 -25.734375 6.109375 -25.617188 6.703125 -25.390625 C 7.296875 -25.171875 7.734375 -24.765625 8.015625 -24.171875 C 8.128906 -23.890625 8.1875 -23.578125 8.1875 -23.234375 C 8.1875 -23.035156 8.171875 -22.828125 8.140625 -22.609375 C 7.972656 -21.835938 7.617188 -21.179688 7.078125 -20.640625 C 6.546875 -20.109375 5.953125 -19.84375 5.296875 -19.84375 C 4.703125 -19.84375 4.148438 -20.046875 3.640625 -20.453125 C 3.140625 -20.867188 2.796875 -21.300781 2.609375 -21.75 C 2.421875 -22.207031 2.328125 -22.632812 2.328125 -23.03125 C 2.328125 -23.195312 2.363281 -23.476562 2.4375 -23.875 C 2.507812 -24.269531 2.757812 -24.640625 3.1875 -24.984375 C 3.582031 -25.234375 3.929688 -25.414062 4.234375 -25.53125 Z M 2.546875 -13.4375 C 2.546875 -13.519531 2.546875 -13.609375 2.546875 -13.703125 L 2.546875 -13.734375 C 2.546875 -13.847656 2.546875 -13.960938 2.546875 -14.078125 L 2.546875 -14.125 C 2.546875 -14.144531 2.546875 -14.171875 2.546875 -14.203125 L 2.546875 -14.296875 C 2.546875 -14.347656 2.546875 -14.398438 2.546875 -14.453125 L 2.546875 -14.546875 C 2.546875 -14.578125 2.546875 -14.601562 2.546875 -14.625 L 2.546875 -15.609375 C 2.546875 -16.171875 2.550781 -16.617188 2.5625 -16.953125 C 2.582031 -17.296875 2.597656 -17.535156 2.609375 -17.671875 C 2.617188 -17.816406 2.65625 -17.890625 2.71875 -17.890625 C 3.132812 -17.722656 4.460938 -17.523438 6.703125 -17.296875 L 8.015625 -17.171875 L 7.9375 -15.4375 C 7.875 -14.132812 7.84375 -12.476562 7.84375 -10.46875 C 7.84375 -9.457031 7.859375 -7.769531 7.890625 -5.40625 C 7.921875 -3.039062 8.019531 -1.253906 8.1875 -0.046875 C 8.320312 1.222656 8.390625 2.015625 8.390625 2.328125 C 8.390625 2.410156 8.390625 2.453125 8.390625 2.453125 C 8.390625 2.453125 8.378906 2.453125 8.359375 2.453125 C 8.179688 2.453125 7.050781 2.253906 4.96875 1.859375 C 2.894531 1.460938 1.804688 1.222656 1.703125 1.140625 L 1.828125 -0.078125 C 2.304688 -4.546875 2.546875 -9 2.546875 -13.4375 Z M 2.546875 -13.4375 "/></g></g></g><g fill="#000000" fill-opacity="1"><g transform="translate(175.342564, 284.210635)"><g/></g></g><g fill="#16519f" fill-opacity="1"><g transform="translate(188.078341, 284.210635)"><g><path d="M 25.53125 -26.125 C 25.53125 -26.207031 25.550781 -26.257812 25.59375 -26.28125 C 25.632812 -26.3125 25.695312 -26.328125 25.78125 -26.328125 C 25.8125 -26.328125 25.875 -26.320312 25.96875 -26.3125 C 26.070312 -26.300781 26.222656 -26.265625 26.421875 -26.203125 C 26.617188 -26.148438 26.898438 -26.050781 27.265625 -25.90625 C 27.972656 -25.625 28.976562 -25.359375 30.28125 -25.109375 C 31.46875 -24.847656 32.070312 -24.710938 32.09375 -24.703125 C 32.125 -24.691406 32.140625 -24.671875 32.140625 -24.640625 C 32.140625 -24.523438 32.054688 -24.242188 31.890625 -23.796875 C 31.410156 -22.234375 30.523438 -18.585938 29.234375 -12.859375 C 27.953125 -7.140625 27.082031 -3.007812 26.625 -0.46875 L 26.328125 1.609375 L 22.90625 1.609375 C 22.90625 1.609375 22.890625 1.609375 22.859375 1.609375 C 22.859375 1.609375 22.84375 1.609375 22.8125 1.609375 C 22.8125 1.609375 22.796875 1.609375 22.765625 1.609375 L 22.3125 1.609375 C 20.925781 1.609375 20.101562 1.550781 19.84375 1.4375 C 19.59375 1.320312 19.425781 0.925781 19.34375 0.25 C 19.3125 0.113281 19.28125 0.00390625 19.25 -0.078125 C 19.113281 -0.960938 18.601562 -3.128906 17.71875 -6.578125 C 16.84375 -10.023438 16.347656 -11.804688 16.234375 -11.921875 C 16.234375 -11.941406 16.222656 -11.953125 16.203125 -11.953125 C 16.171875 -11.953125 16.128906 -11.882812 16.078125 -11.75 C 16.046875 -11.6875 16.015625 -11.585938 15.984375 -11.453125 C 15.898438 -11.109375 15.601562 -10.046875 15.09375 -8.265625 C 14.582031 -6.484375 13.832031 -3.769531 12.84375 -0.125 L 12.375 1.609375 L 9.453125 1.609375 C 7.554688 1.609375 6.484375 1.640625 6.234375 1.703125 C 6.179688 1.722656 6.140625 1.734375 6.109375 1.734375 C 5.992188 1.734375 5.914062 1.675781 5.875 1.5625 C 5.832031 1.457031 5.769531 1.09375 5.6875 0.46875 C 5.175781 -3.289062 4.226562 -8.648438 2.84375 -15.609375 C 1.738281 -20.972656 1.085938 -24.28125 0.890625 -25.53125 L 0.8125 -26.03125 L 2.078125 -25.90625 C 2.835938 -25.820312 3.96875 -25.722656 5.46875 -25.609375 L 7.546875 -25.53125 L 7.59375 -25.015625 C 7.644531 -24.421875 7.894531 -22.640625 8.34375 -19.671875 C 8.800781 -16.703125 9.113281 -14.851562 9.28125 -14.125 C 9.375 -13.664062 9.546875 -12.742188 9.796875 -11.359375 C 9.941406 -10.566406 10.066406 -10.171875 10.171875 -10.171875 C 10.234375 -10.203125 10.304688 -10.289062 10.390625 -10.4375 C 10.535156 -10.832031 10.96875 -12.5 11.6875 -15.4375 C 12.40625 -18.375 12.929688 -20.691406 13.265625 -22.390625 L 13.703125 -24.546875 L 15.4375 -24.6875 C 16.257812 -24.738281 16.9375 -24.765625 17.46875 -24.765625 C 17.664062 -24.765625 17.835938 -24.765625 17.984375 -24.765625 L 18.828125 -24.71875 L 19.375 -22.140625 C 19.851562 -19.703125 20.472656 -17.003906 21.234375 -14.046875 C 22.003906 -11.097656 22.445312 -9.625 22.5625 -9.625 C 22.675781 -9.625 22.757812 -9.835938 22.8125 -10.265625 C 22.84375 -10.378906 22.878906 -10.601562 22.921875 -10.9375 C 22.960938 -11.28125 23.039062 -11.738281 23.15625 -12.3125 C 23.269531 -12.894531 23.367188 -13.398438 23.453125 -13.828125 C 24.804688 -20.804688 25.5 -24.90625 25.53125 -26.125 Z M 25.53125 -26.125 "/></g></g></g><g fill="#16519f" fill-opacity="1"><g transform="translate(221.069459, 284.210635)"><g><path d="M 11.15625 -17.71875 C 11.769531 -18.144531 12.175781 -18.375 12.375 -18.40625 C 12.601562 -18.40625 13.03125 -18.210938 13.65625 -17.828125 C 14.28125 -17.453125 14.816406 -17.035156 15.265625 -16.578125 C 15.804688 -16.015625 16.078125 -15.691406 16.078125 -15.609375 C 16.078125 -15.347656 14.941406 -14.484375 12.671875 -13.015625 C 10.554688 -11.660156 9.175781 -10.671875 8.53125 -10.046875 L 8.015625 -9.5 L 8.015625 -7 C 8.015625 -3.832031 8.1875 -1.144531 8.53125 1.0625 C 8.582031 1.375 8.609375 1.597656 8.609375 1.734375 C 8.609375 1.910156 8.582031 2.007812 8.53125 2.03125 C 8.5 2.09375 8.398438 2.125 8.234375 2.125 C 7.941406 2.125 7.488281 2.066406 6.875 1.953125 C 5.851562 1.785156 4.734375 1.671875 3.515625 1.609375 L 1.703125 1.53125 L 1.828125 1.0625 C 1.910156 0.664062 1.960938 -1.28125 1.984375 -4.78125 C 2.015625 -8.289062 2.03125 -10.679688 2.03125 -11.953125 C 2.03125 -14.472656 2.003906 -16 1.953125 -16.53125 C 1.890625 -17.300781 1.859375 -17.796875 1.859375 -18.015625 C 1.859375 -18.109375 1.859375 -18.15625 1.859375 -18.15625 C 1.859375 -18.15625 1.875 -18.15625 1.90625 -18.15625 C 2.070312 -18.15625 2.609375 -18.066406 3.515625 -17.890625 C 4.648438 -17.691406 5.570312 -17.566406 6.28125 -17.515625 C 7.238281 -17.398438 7.78125 -17.289062 7.90625 -17.1875 C 8.03125 -17.09375 8.09375 -16.875 8.09375 -16.53125 C 8.09375 -16.394531 8.082031 -16.242188 8.0625 -16.078125 C 8.03125 -15.816406 8.015625 -15.601562 8.015625 -15.4375 C 8.015625 -15.207031 8.039062 -15.09375 8.09375 -15.09375 C 8.15625 -15.09375 8.523438 -15.421875 9.203125 -16.078125 C 9.796875 -16.722656 10.445312 -17.269531 11.15625 -17.71875 Z M 11.15625 -17.71875 "/></g></g></g><g fill="#16519f" fill-opacity="1"><g transform="translate(237.013752, 284.210635)"><g><path d="M 4.234375 -25.53125 C 4.546875 -25.664062 4.890625 -25.734375 5.265625 -25.734375 C 5.628906 -25.734375 6.109375 -25.617188 6.703125 -25.390625 C 7.296875 -25.171875 7.734375 -24.765625 8.015625 -24.171875 C 8.128906 -23.890625 8.1875 -23.578125 8.1875 -23.234375 C 8.1875 -23.035156 8.171875 -22.828125 8.140625 -22.609375 C 7.972656 -21.835938 7.617188 -21.179688 7.078125 -20.640625 C 6.546875 -20.109375 5.953125 -19.84375 5.296875 -19.84375 C 4.703125 -19.84375 4.148438 -20.046875 3.640625 -20.453125 C 3.140625 -20.867188 2.796875 -21.300781 2.609375 -21.75 C 2.421875 -22.207031 2.328125 -22.632812 2.328125 -23.03125 C 2.328125 -23.195312 2.363281 -23.476562 2.4375 -23.875 C 2.507812 -24.269531 2.757812 -24.640625 3.1875 -24.984375 C 3.582031 -25.234375 3.929688 -25.414062 4.234375 -25.53125 Z M 2.546875 -13.4375 C 2.546875 -13.519531 2.546875 -13.609375 2.546875 -13.703125 L 2.546875 -13.734375 C 2.546875 -13.847656 2.546875 -13.960938 2.546875 -14.078125 L 2.546875 -14.125 C 2.546875 -14.144531 2.546875 -14.171875 2.546875 -14.203125 L 2.546875 -14.296875 C 2.546875 -14.347656 2.546875 -14.398438 2.546875 -14.453125 L 2.546875 -14.546875 C 2.546875 -14.578125 2.546875 -14.601562 2.546875 -14.625 L 2.546875 -15.609375 C 2.546875 -16.171875 2.550781 -16.617188 2.5625 -16.953125 C 2.582031 -17.296875 2.597656 -17.535156 2.609375 -17.671875 C 2.617188 -17.816406 2.65625 -17.890625 2.71875 -17.890625 C 3.132812 -17.722656 4.460938 -17.523438 6.703125 -17.296875 L 8.015625 -17.171875 L 7.9375 -15.4375 C 7.875 -14.132812 7.84375 -12.476562 7.84375 -10.46875 C 7.84375 -9.457031 7.859375 -7.769531 7.890625 -5.40625 C 7.921875 -3.039062 8.019531 -1.253906 8.1875 -0.046875 C 8.320312 1.222656 8.390625 2.015625 8.390625 2.328125 C 8.390625 2.410156 8.390625 2.453125 8.390625 2.453125 C 8.390625 2.453125 8.378906 2.453125 8.359375 2.453125 C 8.179688 2.453125 7.050781 2.253906 4.96875 1.859375 C 2.894531 1.460938 1.804688 1.222656 1.703125 1.140625 L 1.828125 -0.078125 C 2.304688 -4.546875 2.546875 -9 2.546875 -13.4375 Z M 2.546875 -13.4375 "/></g></g></g><g fill="#16519f" fill-opacity="1"><g transform="translate(247.148556, 284.210635)"><g><path d="M 4.796875 -24.71875 C 4.816406 -24.78125 4.875 -24.8125 4.96875 -24.8125 C 5.019531 -24.8125 5.085938 -24.796875 5.171875 -24.765625 C 5.597656 -24.566406 6.546875 -24.335938 8.015625 -24.078125 C 9.484375 -23.828125 10.457031 -23.703125 10.9375 -23.703125 C 11.019531 -23.703125 11.066406 -23.582031 11.078125 -23.34375 C 11.097656 -23.101562 11.109375 -22.882812 11.109375 -22.6875 C 11.109375 -22.320312 11.09375 -21.765625 11.0625 -21.015625 C 11.039062 -20.265625 10.984375 -19.363281 10.890625 -18.3125 L 10.8125 -17.265625 L 11.484375 -17.390625 C 12.054688 -17.503906 12.820312 -17.6875 13.78125 -17.9375 C 14.519531 -18.164062 15.015625 -18.28125 15.265625 -18.28125 C 15.378906 -18.28125 15.453125 -18.25 15.484375 -18.1875 C 15.535156 -17.9375 15.769531 -17.226562 16.1875 -16.0625 C 16.613281 -14.90625 16.882812 -14.21875 17 -14 L 17.34375 -13.359375 L 16.671875 -13.265625 C 16.359375 -13.210938 15.550781 -13.113281 14.25 -12.96875 C 13.113281 -12.832031 12.28125 -12.722656 11.75 -12.640625 L 10.890625 -12.546875 L 10.859375 -10.609375 C 10.859375 -10.234375 10.859375 -9.863281 10.859375 -9.5 C 10.859375 -8.457031 10.882812 -7.492188 10.9375 -6.609375 C 11.050781 -5.222656 11.191406 -4.21875 11.359375 -3.59375 C 11.535156 -2.976562 11.804688 -2.570312 12.171875 -2.375 C 12.398438 -2.207031 12.894531 -2.085938 13.65625 -2.015625 C 14.414062 -1.941406 15.035156 -1.90625 15.515625 -1.90625 C 15.828125 -1.90625 16.125 -1.921875 16.40625 -1.953125 C 16.6875 -1.984375 16.925781 -2 17.125 -2 C 17.382812 -2 17.515625 -1.96875 17.515625 -1.90625 C 17.515625 -1.769531 17.144531 -1.328125 16.40625 -0.578125 C 15.675781 0.171875 15.125 0.675781 14.75 0.9375 C 14.019531 1.414062 13.34375 1.753906 12.71875 1.953125 C 12.09375 2.148438 11.316406 2.25 10.390625 2.25 C 9.597656 2.25 9.050781 2.21875 8.75 2.15625 C 8.457031 2.101562 8.085938 1.960938 7.640625 1.734375 C 6.984375 1.421875 6.429688 1.039062 5.984375 0.59375 C 5.441406 -0.03125 5.128906 -0.640625 5.046875 -1.234375 C 4.960938 -1.828125 4.921875 -2.828125 4.921875 -4.234375 C 4.921875 -5.023438 4.9375 -5.988281 4.96875 -7.125 L 5.046875 -11.828125 L 3.640625 -11.484375 C 2.765625 -11.285156 2.269531 -11.1875 2.15625 -11.1875 C 2.132812 -11.1875 2.125 -11.1875 2.125 -11.1875 C 2.09375 -11.21875 1.882812 -11.90625 1.5 -13.25 C 1.125 -14.59375 0.894531 -15.421875 0.8125 -15.734375 C 0.8125 -15.765625 0.8125 -15.789062 0.8125 -15.8125 C 0.8125 -15.957031 0.882812 -16.039062 1.03125 -16.0625 C 1.1875 -16.09375 1.734375 -16.140625 2.671875 -16.203125 C 3.910156 -16.253906 4.617188 -16.3125 4.796875 -16.375 C 4.910156 -16.394531 4.972656 -16.828125 4.984375 -17.671875 C 4.992188 -18.523438 5 -19.035156 5 -19.203125 C 5 -20.535156 4.941406 -21.8125 4.828125 -23.03125 C 4.773438 -23.675781 4.75 -24.140625 4.75 -24.421875 C 4.75 -24.597656 4.765625 -24.695312 4.796875 -24.71875 Z M 4.796875 -24.71875 "/></g></g></g><g fill="#16519f" fill-opacity="1"><g transform="translate(265.297909, 284.210635)"><g><path d="M 9.03125 -17.6875 C 9.570312 -17.800781 10.097656 -17.859375 10.609375 -17.859375 C 11.929688 -17.859375 13.242188 -17.515625 14.546875 -16.828125 C 16.492188 -15.835938 17.738281 -14.003906 18.28125 -11.328125 C 18.414062 -10.648438 18.484375 -10.066406 18.484375 -9.578125 C 18.484375 -9.273438 18.425781 -8.914062 18.3125 -8.5 C 18.207031 -8.09375 17.828125 -7.75 17.171875 -7.46875 C 16.015625 -6.957031 13.65625 -6.601562 10.09375 -6.40625 L 6.875 -6.234375 L 7.046875 -5.640625 C 7.328125 -4.617188 7.832031 -3.800781 8.5625 -3.1875 C 9.019531 -2.789062 9.457031 -2.535156 9.875 -2.421875 C 10.300781 -2.304688 10.769531 -2.25 11.28125 -2.25 C 11.507812 -2.25 11.75 -2.265625 12 -2.296875 C 13.695312 -2.429688 15.363281 -3.234375 17 -4.703125 L 18.234375 -5.8125 L 18.234375 -5 C 18.234375 -4.15625 18.035156 -3.269531 17.640625 -2.34375 C 17.242188 -1.425781 16.773438 -0.71875 16.234375 -0.21875 C 15.191406 0.75 14.097656 1.351562 12.953125 1.59375 C 11.804688 1.832031 10.867188 1.953125 10.140625 1.953125 C 9.285156 1.953125 8.4375 1.851562 7.59375 1.65625 C 5.976562 1.289062 4.632812 0.523438 3.5625 -0.640625 C 2.6875 -1.597656 2.082031 -2.570312 1.75 -3.5625 C 1.425781 -4.550781 1.265625 -5.835938 1.265625 -7.421875 C 1.265625 -10.128906 1.914062 -12.375 3.21875 -14.15625 C 3.8125 -14.976562 4.660156 -15.710938 5.765625 -16.359375 C 6.867188 -17.015625 7.957031 -17.457031 9.03125 -17.6875 Z M 11.453125 -13.828125 C 10.992188 -14.046875 10.625 -14.15625 10.34375 -14.15625 C 10.007812 -14.15625 9.613281 -14.03125 9.15625 -13.78125 C 8.707031 -13.53125 8.367188 -13.257812 8.140625 -12.96875 C 7.859375 -12.632812 7.597656 -12.191406 7.359375 -11.640625 C 7.117188 -11.085938 7 -10.695312 7 -10.46875 C 7 -10.300781 7.03125 -10.207031 7.09375 -10.1875 C 7.164062 -10.175781 7.234375 -10.171875 7.296875 -10.171875 C 7.460938 -10.171875 7.800781 -10.203125 8.3125 -10.265625 C 10.71875 -10.460938 12.144531 -10.671875 12.59375 -10.890625 C 12.789062 -10.984375 12.890625 -11.210938 12.890625 -11.578125 C 12.890625 -11.609375 12.878906 -11.726562 12.859375 -11.9375 C 12.847656 -12.144531 12.734375 -12.4375 12.515625 -12.8125 C 12.285156 -13.257812 11.929688 -13.597656 11.453125 -13.828125 Z M 11.453125 -13.828125 "/></g></g></g><g fill="#16519f" fill-opacity="1"><g transform="translate(284.846634, 284.210635)"><g><path d="M 11.15625 -17.71875 C 11.769531 -18.144531 12.175781 -18.375 12.375 -18.40625 C 12.601562 -18.40625 13.03125 -18.210938 13.65625 -17.828125 C 14.28125 -17.453125 14.816406 -17.035156 15.265625 -16.578125 C 15.804688 -16.015625 16.078125 -15.691406 16.078125 -15.609375 C 16.078125 -15.347656 14.941406 -14.484375 12.671875 -13.015625 C 10.554688 -11.660156 9.175781 -10.671875 8.53125 -10.046875 L 8.015625 -9.5 L 8.015625 -7 C 8.015625 -3.832031 8.1875 -1.144531 8.53125 1.0625 C 8.582031 1.375 8.609375 1.597656 8.609375 1.734375 C 8.609375 1.910156 8.582031 2.007812 8.53125 2.03125 C 8.5 2.09375 8.398438 2.125 8.234375 2.125 C 7.941406 2.125 7.488281 2.066406 6.875 1.953125 C 5.851562 1.785156 4.734375 1.671875 3.515625 1.609375 L 1.703125 1.53125 L 1.828125 1.0625 C 1.910156 0.664062 1.960938 -1.28125 1.984375 -4.78125 C 2.015625 -8.289062 2.03125 -10.679688 2.03125 -11.953125 C 2.03125 -14.472656 2.003906 -16 1.953125 -16.53125 C 1.890625 -17.300781 1.859375 -17.796875 1.859375 -18.015625 C 1.859375 -18.109375 1.859375 -18.15625 1.859375 -18.15625 C 1.859375 -18.15625 1.875 -18.15625 1.90625 -18.15625 C 2.070312 -18.15625 2.609375 -18.066406 3.515625 -17.890625 C 4.648438 -17.691406 5.570312 -17.566406 6.28125 -17.515625 C 7.238281 -17.398438 7.78125 -17.289062 7.90625 -17.1875 C 8.03125 -17.09375 8.09375 -16.875 8.09375 -16.53125 C 8.09375 -16.394531 8.082031 -16.242188 8.0625 -16.078125 C 8.03125 -15.816406 8.015625 -15.601562 8.015625 -15.4375 C 8.015625 -15.207031 8.039062 -15.09375 8.09375 -15.09375 C 8.15625 -15.09375 8.523438 -15.421875 9.203125 -16.078125 C 9.796875 -16.722656 10.445312 -17.269531 11.15625 -17.71875 Z M 11.15625 -17.71875 "/></g></g></g><g fill="#16519f" fill-opacity="1"><g transform="translate(300.790928, 284.210635)"><g><path d="M 7.9375 -17.859375 C 8.46875 -17.941406 9.265625 -18.007812 10.328125 -18.0625 C 11.390625 -18.125 12.300781 -18.15625 13.0625 -18.15625 C 13.257812 -18.15625 13.640625 -18.144531 14.203125 -18.125 C 14.765625 -18.113281 15.046875 -18.050781 15.046875 -17.9375 C 15.046875 -17.769531 15.132812 -17.078125 15.3125 -15.859375 C 15.476562 -14.703125 15.5625 -14.035156 15.5625 -13.859375 C 15.5625 -13.835938 15.5625 -13.828125 15.5625 -13.828125 C 15.5625 -13.796875 15.488281 -13.78125 15.34375 -13.78125 C 15.125 -13.78125 14.726562 -13.820312 14.15625 -13.90625 C 13.34375 -14.019531 12.421875 -14.078125 11.390625 -14.078125 C 10.359375 -14.078125 9.613281 -14.019531 9.15625 -13.90625 C 8.507812 -13.707031 8.085938 -13.4375 7.890625 -13.09375 C 7.691406 -12.757812 7.59375 -12.492188 7.59375 -12.296875 C 7.59375 -12.066406 7.707031 -11.84375 7.9375 -11.625 C 8.132812 -11.425781 8.976562 -11.097656 10.46875 -10.640625 C 12.113281 -10.128906 13.253906 -9.660156 13.890625 -9.234375 C 14.523438 -8.816406 15.082031 -8.195312 15.5625 -7.375 C 15.789062 -6.976562 15.925781 -6.640625 15.96875 -6.359375 C 16.007812 -6.078125 16.03125 -5.539062 16.03125 -4.75 C 16.03125 -4.632812 16.03125 -4.535156 16.03125 -4.453125 C 16.03125 -3.429688 15.898438 -2.640625 15.640625 -2.078125 C 15.421875 -1.597656 15.054688 -1.070312 14.546875 -0.5 C 14.035156 0.0625 13.507812 0.5 12.96875 0.8125 C 12.175781 1.289062 11.285156 1.582031 10.296875 1.6875 C 9.316406 1.800781 8.539062 1.859375 7.96875 1.859375 C 7.09375 1.859375 6.21875 1.789062 5.34375 1.65625 C 4.550781 1.539062 3.664062 1.34375 2.6875 1.0625 C 1.71875 0.78125 1.175781 0.566406 1.0625 0.421875 C 1.0625 0.304688 1.300781 -0.484375 1.78125 -1.953125 C 2.257812 -3.421875 2.515625 -4.179688 2.546875 -4.234375 C 2.546875 -4.265625 2.5625 -4.28125 2.59375 -4.28125 C 2.695312 -4.28125 2.894531 -4.15625 3.1875 -3.90625 C 4.195312 -2.96875 5.140625 -2.441406 6.015625 -2.328125 C 6.898438 -2.210938 7.46875 -2.15625 7.71875 -2.15625 C 8.757812 -2.15625 9.507812 -2.46875 9.96875 -3.09375 C 10.195312 -3.375 10.320312 -3.640625 10.34375 -3.890625 C 10.375 -4.148438 10.390625 -4.320312 10.390625 -4.40625 C 10.390625 -4.71875 10.332031 -4.988281 10.21875 -5.21875 C 10.019531 -5.582031 9.128906 -5.960938 7.546875 -6.359375 C 6.023438 -6.753906 4.878906 -7.164062 4.109375 -7.59375 C 3.828125 -7.726562 3.457031 -8.03125 3 -8.5 C 2.550781 -8.96875 2.257812 -9.359375 2.125 -9.671875 C 1.863281 -10.265625 1.734375 -10.898438 1.734375 -11.578125 C 1.734375 -12.023438 1.789062 -12.503906 1.90625 -13.015625 C 2.53125 -15.617188 4.539062 -17.234375 7.9375 -17.859375 Z M 7.9375 -17.859375 "/></g></g></g></svg>